<?xml version="1.0" encoding="UTF-8"?>
<!DOCTYPE svg PUBLIC "-//W3C//DTD SVG 1.1//EN" "http://www.w3.org/Graphics/SVG/1.1/DTD/svg11.dtd">
<svg xmlns="http://www.w3.org/2000/svg" version="1.1" width="1080px" height="1080px" style="shape-rendering:geometricPrecision; text-rendering:geometricPrecision; image-rendering:optimizeQuality; fill-rule:evenodd; clip-rule:evenodd" xmlns:xlink="http://www.w3.org/1999/xlink">
<g><path style="opacity:0.996" fill="#fefefe" d="M 517.5,-0.5 C 532.167,-0.5 546.833,-0.5 561.5,-0.5C 732.43,10.7013 869.93,83.7013 974,218.5C 1038.65,307.598 1073.81,407.264 1079.5,517.5C 1079.5,532.167 1079.5,546.833 1079.5,561.5C 1068.3,732.43 995.299,869.93 860.5,974C 771.402,1038.65 671.736,1073.81 561.5,1079.5C 546.833,1079.5 532.167,1079.5 517.5,1079.5C 346.57,1068.3 209.07,995.299 105,860.5C 40.3536,771.402 5.18691,671.736 -0.5,561.5C -0.5,546.833 -0.5,532.167 -0.5,517.5C 10.7013,346.57 83.7013,209.07 218.5,105C 307.598,40.3536 407.264,5.18691 517.5,-0.5 Z"/></g>
<g><path style="opacity:1" fill="#f7a889" d="M 891.5,340.5 C 904.886,342.4 916.886,347.4 927.5,355.5C 925.079,355.122 922.746,354.455 920.5,353.5C 920.631,352.624 920.298,351.957 919.5,351.5C 916.15,349.383 912.484,348.049 908.5,347.5C 904.749,348.38 903.416,350.547 904.5,354C 902.32,354.419 900.154,354.252 898,353.5C 896.624,353.684 895.791,354.351 895.5,355.5C 888.988,353.896 882.322,353.063 875.5,353C 874.022,350.961 872.022,350.128 869.5,350.5C 869.02,347.315 869.686,344.481 871.5,342C 878.128,340.948 884.794,340.448 891.5,340.5 Z"/></g>
<g><path style="opacity:1" fill="#ebb099" d="M 891.5,340.5 C 884.794,340.448 878.128,340.948 871.5,342C 869.686,344.481 869.02,347.315 869.5,350.5C 872.022,350.128 874.022,350.961 875.5,353C 882.322,353.063 888.988,353.896 895.5,355.5C 898.326,355.998 900.66,357.331 902.5,359.5C 892.616,355.479 882.283,353.479 871.5,353.5C 867.065,349.624 866.398,345.124 869.5,340C 877.012,339.178 884.345,339.345 891.5,340.5 Z"/></g>
<g><path style="opacity:1" fill="#f48672" d="M 920.5,353.5 C 919.5,353.5 918.5,353.5 917.5,353.5C 917.5,355.5 917.5,357.5 917.5,359.5C 914.813,359.336 912.146,359.503 909.5,360C 912.358,361.694 914.691,363.861 916.5,366.5C 911.83,364.162 907.164,361.828 902.5,359.5C 900.66,357.331 898.326,355.998 895.5,355.5C 895.791,354.351 896.624,353.684 898,353.5C 900.154,354.252 902.32,354.419 904.5,354C 903.416,350.547 904.749,348.38 908.5,347.5C 912.484,348.049 916.15,349.383 919.5,351.5C 920.298,351.957 920.631,352.624 920.5,353.5 Z"/></g>
<g><path style="opacity:1" fill="#ee5d55" d="M 920.5,353.5 C 922.746,354.455 925.079,355.122 927.5,355.5C 933.818,359.159 939.152,363.825 943.5,369.5C 940.393,367.895 937.726,365.728 935.5,363C 934.207,362.51 932.873,362.343 931.5,362.5C 931.554,366.78 929.554,369.114 925.5,369.5C 925.5,370.5 925.5,371.5 925.5,372.5C 922.495,370.493 919.495,368.493 916.5,366.5C 914.691,363.861 912.358,361.694 909.5,360C 912.146,359.503 914.813,359.336 917.5,359.5C 917.5,357.5 917.5,355.5 917.5,353.5C 918.5,353.5 919.5,353.5 920.5,353.5 Z"/></g>
<g><path style="opacity:1" fill="#024d94" d="M 195.5,368.5 C 195.5,388.833 195.5,409.167 195.5,429.5C 224.863,429.067 254.196,429.567 283.5,431C 295.152,433.177 303.819,439.344 309.5,449.5C 308.89,454.704 310.057,459.371 313,463.5C 313.167,487.667 313.333,511.833 313.5,536C 313.49,560.715 312.824,585.215 311.5,609.5C 303.167,609.5 294.833,609.5 286.5,609.5C 286.832,565.997 286.499,522.663 285.5,479.5C 285.593,472.704 283.26,467.037 278.5,462.5C 278.611,461.883 278.944,461.383 279.5,461C 277.028,459.54 274.361,458.54 271.5,458C 260.833,457.833 250.167,457.667 239.5,457.5C 228.478,457.501 217.812,458.168 207.5,459.5C 207.5,459.833 207.5,460.167 207.5,460.5C 202.916,462.082 199.583,465.082 197.5,469.5C 196.069,469.881 195.236,470.881 195,472.5C 194.667,517.833 194.333,563.167 194,608.5C 185.912,609.648 177.746,609.815 169.5,609C 169,608.5 168.5,608 168,607.5C 167.5,527.834 167.333,448.167 167.5,368.5C 176.833,368.5 186.167,368.5 195.5,368.5 Z"/></g>
<g><path style="opacity:1" fill="#014c95" d="M 377.5,395.5 C 377.5,396.167 377.5,396.833 377.5,397.5C 376.883,397.611 376.383,397.944 376,398.5C 374.06,394.104 373.06,389.437 373,384.5C 370.495,382.804 368.995,380.47 368.5,377.5C 367.343,380.784 367.176,384.118 368,387.5C 368.833,386.5 369.667,385.5 370.5,384.5C 371.328,389.132 371.828,393.798 372,398.5C 372.692,399.025 373.192,399.692 373.5,400.5C 366.347,401.073 359.014,401.573 351.5,402C 357.356,403.127 363.356,403.96 369.5,404.5C 362.524,405.664 355.524,405.831 348.5,405C 347.975,404.308 347.308,403.808 346.5,403.5C 345.189,396.61 345.189,389.777 346.5,383C 345.833,382.667 345.167,382.333 344.5,382C 346.617,380.269 348.117,378.102 349,375.5C 354.691,375.532 360.524,375.365 366.5,375C 368.506,372.952 369.506,373.452 369.5,376.5C 371.144,376.286 372.644,376.62 374,377.5C 374.495,379.473 374.662,381.473 374.5,383.5C 375.5,383.5 376.5,383.5 377.5,383.5C 377.5,387.5 377.5,391.5 377.5,395.5 Z"/></g>
<g><path style="opacity:1" fill="#f8a789" d="M 893.5,372.5 C 900.163,373.817 905.829,376.817 910.5,381.5C 907.017,380.004 903.517,378.671 900,377.5C 896.964,378.271 894.131,379.437 891.5,381C 896.628,382.105 896.628,383.438 891.5,385C 893.192,386.307 894.525,387.807 895.5,389.5C 890.192,387.395 884.859,385.728 879.5,384.5C 876.092,383.98 872.759,382.98 869.5,381.5C 868.921,377.904 868.921,374.237 869.5,370.5C 877.595,370.239 885.595,370.906 893.5,372.5 Z"/></g>
<g><path style="opacity:1" fill="#ebb6a0" d="M 893.5,372.5 C 885.595,370.906 877.595,370.239 869.5,370.5C 868.921,374.237 868.921,377.904 869.5,381.5C 872.759,382.98 876.092,383.98 879.5,384.5C 869.346,386.504 864.846,382.504 866,372.5C 867.167,371.333 868.333,370.167 869.5,369C 877.912,368.216 885.912,369.382 893.5,372.5 Z"/></g>
<g><path style="opacity:1" fill="#164d84" d="M 166.5,367.5 C 176.348,367.173 186.014,367.506 195.5,368.5C 186.167,368.5 176.833,368.5 167.5,368.5C 167.333,448.167 167.5,527.834 168,607.5C 168.5,608 169,608.5 169.5,609C 177.746,609.815 185.912,609.648 194,608.5C 194.333,563.167 194.667,517.833 195,472.5C 195.236,470.881 196.069,469.881 197.5,469.5C 196.85,471.435 196.517,473.435 196.5,475.5C 195.501,520.33 195.168,565.33 195.5,610.5C 185.833,610.5 176.167,610.5 166.5,610.5C 166.5,529.5 166.5,448.5 166.5,367.5 Z"/></g>
<g><path style="opacity:1" fill="#e91c2b" d="M 941.5,392.5 C 941.5,392.167 941.5,391.833 941.5,391.5C 939.973,387.586 938.64,383.586 937.5,379.5C 938.989,379.467 940.322,378.967 941.5,378C 938.965,377.072 937.965,375.238 938.5,372.5C 941.261,373.92 944.261,374.587 947.5,374.5C 946.189,377.807 944.523,380.974 942.5,384C 943.167,384.667 943.833,384.667 944.5,384C 945.667,382.167 946.833,380.333 948,378.5C 951.376,380.759 951.21,382.759 947.5,384.5C 949.412,386.657 951.079,388.991 952.5,391.5C 953.251,390.624 953.751,389.624 954,388.5C 957.24,395.045 957.907,402.045 956,409.5C 955.586,409.957 955.086,410.291 954.5,410.5C 953.833,408.833 953.167,407.167 952.5,405.5C 951.833,405.833 951.167,406.167 950.5,406.5C 946.337,403.026 945.67,399.026 948.5,394.5C 948.167,393.833 947.833,393.167 947.5,392.5C 945.775,393.308 943.775,393.308 941.5,392.5 Z"/></g>
<g><path style="opacity:1" fill="#f17d6d" d="M 910.5,381.5 C 911.872,382.512 913.205,383.512 914.5,384.5C 908.341,381.905 904.008,383.905 901.5,390.5C 903.418,393.026 905.751,395.026 908.5,396.5C 909.957,398.628 910.957,400.962 911.5,403.5C 906.488,398.49 901.155,393.823 895.5,389.5C 894.525,387.807 893.192,386.307 891.5,385C 896.628,383.438 896.628,382.105 891.5,381C 894.131,379.437 896.964,378.271 900,377.5C 903.517,378.671 907.017,380.004 910.5,381.5 Z"/></g>
<g><path style="opacity:1" fill="#e12e37" d="M 943.5,369.5 C 954.397,380.286 961.397,393.286 964.5,408.5C 963.59,406.981 962.757,405.315 962,403.5C 958.324,410.292 956.49,417.625 956.5,425.5C 955.775,420.706 954.609,416.04 953,411.5C 952.51,412.793 952.343,414.127 952.5,415.5C 951.833,415.5 951.167,415.5 950.5,415.5C 948.386,407.586 945.386,399.919 941.5,392.5C 943.775,393.308 945.775,393.308 947.5,392.5C 947.833,393.167 948.167,393.833 948.5,394.5C 945.67,399.026 946.337,403.026 950.5,406.5C 951.167,406.167 951.833,405.833 952.5,405.5C 953.167,407.167 953.833,408.833 954.5,410.5C 955.086,410.291 955.586,409.957 956,409.5C 957.907,402.045 957.24,395.045 954,388.5C 953.751,389.624 953.251,390.624 952.5,391.5C 951.079,388.991 949.412,386.657 947.5,384.5C 951.21,382.759 951.376,380.759 948,378.5C 946.833,380.333 945.667,382.167 944.5,384C 943.833,384.667 943.167,384.667 942.5,384C 944.523,380.974 946.189,377.807 947.5,374.5C 944.261,374.587 941.261,373.92 938.5,372.5C 937.965,375.238 938.965,377.072 941.5,378C 940.322,378.967 938.989,379.467 937.5,379.5C 938.64,383.586 939.973,387.586 941.5,391.5C 936.89,384.651 931.557,378.318 925.5,372.5C 925.5,371.5 925.5,370.5 925.5,369.5C 929.554,369.114 931.554,366.78 931.5,362.5C 932.873,362.343 934.207,362.51 935.5,363C 937.726,365.728 940.393,367.895 943.5,369.5 Z"/></g>
<g><path style="opacity:1" fill="#ec5955" d="M 914.5,384.5 C 920.014,388.341 924.014,393.341 926.5,399.5C 922.336,399.228 920.503,396.894 921,392.5C 919.412,389.691 917.245,389.025 914.5,390.5C 913.833,389.833 913.167,389.167 912.5,388.5C 910.611,390.432 908.611,392.265 906.5,394C 907.756,394.417 908.423,395.25 908.5,396.5C 905.751,395.026 903.418,393.026 901.5,390.5C 904.008,383.905 908.341,381.905 914.5,384.5 Z"/></g>
<g><path style="opacity:1" fill="#e3f4f9" d="M 362.5,368.5 C 366.183,368.087 369.517,368.921 372.5,371C 378.871,378.253 382.038,385.42 382,392.5C 380.133,394.808 379.133,397.475 379,400.5C 377.807,402.605 376.14,404.272 374,405.5C 373.517,406.448 373.351,407.448 373.5,408.5C 369.742,409.396 365.909,410.062 362,410.5C 359.967,410.494 358.134,410.161 356.5,409.5C 366.449,410.367 373.449,406.367 377.5,397.5C 377.5,396.833 377.5,396.167 377.5,395.5C 380.596,382.028 375.596,373.028 362.5,368.5 Z"/></g>
<g><path style="opacity:1" fill="#f5a98c" d="M 885.5,402.5 C 884.494,402.938 884.494,403.604 885.5,404.5C 881.926,406.393 878.593,408.727 875.5,411.5C 878.851,412.237 880.851,414.237 881.5,417.5C 876.169,414.96 870.502,413.294 864.5,412.5C 861.014,408.29 860.681,403.957 863.5,399.5C 868.668,397.246 874.001,397.079 879.5,399C 881.879,399.716 883.879,400.883 885.5,402.5 Z"/></g>
<g><path style="opacity:1" fill="#e72430" d="M 926.5,399.5 C 928.25,400.659 929.25,402.326 929.5,404.5C 929.517,406.565 929.85,408.565 930.5,410.5C 931.638,415.524 931.638,420.524 930.5,425.5C 932.582,426.366 933.915,427.866 934.5,430C 934.057,431.825 933.723,433.658 933.5,435.5C 930.785,437.123 927.785,437.79 924.5,437.5C 920.608,430.595 919.608,423.261 921.5,415.5C 920.5,415.5 919.5,415.5 918.5,415.5C 918.261,413.533 918.594,411.699 919.5,410C 916.258,408.963 913.591,406.796 911.5,403.5C 910.957,400.962 909.957,398.628 908.5,396.5C 908.423,395.25 907.756,394.417 906.5,394C 908.611,392.265 910.611,390.432 912.5,388.5C 913.167,389.167 913.833,389.833 914.5,390.5C 917.245,389.025 919.412,389.691 921,392.5C 920.503,396.894 922.336,399.228 926.5,399.5 Z"/></g>
<g><path style="opacity:1" fill="#e59089" d="M 885.5,402.5 C 893.035,404.704 898.368,409.371 901.5,416.5C 899.833,415.167 898.167,413.833 896.5,412.5C 896.033,409.703 894.367,408.369 891.5,408.5C 890.318,405.991 888.318,404.657 885.5,404.5C 884.494,403.604 884.494,402.938 885.5,402.5 Z"/></g>
<g><path style="opacity:1" fill="#114d8d" d="M 362.5,368.5 C 375.596,373.028 380.596,382.028 377.5,395.5C 377.5,391.5 377.5,387.5 377.5,383.5C 376.5,383.5 375.5,383.5 374.5,383.5C 374.662,381.473 374.495,379.473 374,377.5C 372.644,376.62 371.144,376.286 369.5,376.5C 369.506,373.452 368.506,372.952 366.5,375C 360.524,375.365 354.691,375.532 349,375.5C 348.117,378.102 346.617,380.269 344.5,382C 345.167,382.333 345.833,382.667 346.5,383C 345.189,389.777 345.189,396.61 346.5,403.5C 347.308,403.808 347.975,404.308 348.5,405C 355.524,405.831 362.524,405.664 369.5,404.5C 363.356,403.96 357.356,403.127 351.5,402C 359.014,401.573 366.347,401.073 373.5,400.5C 373.192,399.692 372.692,399.025 372,398.5C 371.828,393.798 371.328,389.132 370.5,384.5C 369.667,385.5 368.833,386.5 368,387.5C 367.176,384.118 367.343,380.784 368.5,377.5C 368.995,380.47 370.495,382.804 373,384.5C 373.06,389.437 374.06,394.104 376,398.5C 376.383,397.944 376.883,397.611 377.5,397.5C 373.449,406.367 366.449,410.367 356.5,409.5C 342.743,406.358 337.243,397.691 340,383.5C 342.072,376.427 346.572,371.594 353.5,369C 356.482,368.502 359.482,368.335 362.5,368.5 Z"/></g>
<g><path style="opacity:1" fill="#d24856" d="M 929.5,404.5 C 931.642,407.8 932.975,411.467 933.5,415.5C 932.313,413.928 931.313,412.261 930.5,410.5C 929.85,408.565 929.517,406.565 929.5,404.5 Z"/></g>
<g><path style="opacity:1" fill="#f6826e" d="M 885.5,404.5 C 888.318,404.657 890.318,405.991 891.5,408.5C 887.173,410.16 884.173,413.16 882.5,417.5C 882.167,417.5 881.833,417.5 881.5,417.5C 880.851,414.237 878.851,412.237 875.5,411.5C 878.593,408.727 881.926,406.393 885.5,404.5 Z"/></g>
<g><path style="opacity:1" fill="#e75a59" d="M 891.5,408.5 C 894.367,408.369 896.033,409.703 896.5,412.5C 895.596,413.209 895.263,414.209 895.5,415.5C 892.336,415.558 889.336,416.224 886.5,417.5C 886.167,420.5 887.5,421.833 890.5,421.5C 890.198,424.059 890.532,426.393 891.5,428.5C 890.784,433.351 892.117,437.518 895.5,441C 897.473,441.495 899.473,441.662 901.5,441.5C 901.5,440.5 901.5,439.5 901.5,438.5C 902.959,438.567 904.292,438.234 905.5,437.5C 905.5,438.167 905.5,438.833 905.5,439.5C 902.408,442.355 898.741,443.188 894.5,442C 892.951,440.786 891.785,439.286 891,437.5C 891.157,429.489 888.324,422.823 882.5,417.5C 884.173,413.16 887.173,410.16 891.5,408.5 Z"/></g>
<g><path style="opacity:1" fill="#d83641" d="M 911.5,403.5 C 913.591,406.796 916.258,408.963 919.5,410C 918.594,411.699 918.261,413.533 918.5,415.5C 919.5,415.5 920.5,415.5 921.5,415.5C 919.608,423.261 920.608,430.595 924.5,437.5C 922.983,437.489 921.816,436.823 921,435.5C 920.763,423.955 917.596,413.289 911.5,403.5 Z"/></g>
<g><path style="opacity:1" fill="#ec4345" d="M 896.5,412.5 C 898.167,413.833 899.833,415.167 901.5,416.5C 902.674,417.514 903.34,418.847 903.5,420.5C 901.801,420.66 900.134,420.494 898.5,420C 897.932,418.396 896.932,417.73 895.5,418C 894.842,419.905 893.675,421.405 892,422.5C 891.505,424.473 891.338,426.473 891.5,428.5C 890.532,426.393 890.198,424.059 890.5,421.5C 887.5,421.833 886.167,420.5 886.5,417.5C 889.336,416.224 892.336,415.558 895.5,415.5C 895.263,414.209 895.596,413.209 896.5,412.5 Z"/></g>
<g><path style="opacity:1" fill="#db2739" d="M 930.5,410.5 C 931.313,412.261 932.313,413.928 933.5,415.5C 934.984,419.054 935.651,422.888 935.5,427C 935.333,429.5 935.167,432 935,434.5C 934.617,435.056 934.117,435.389 933.5,435.5C 933.723,433.658 934.057,431.825 934.5,430C 933.915,427.866 932.582,426.366 930.5,425.5C 931.638,420.524 931.638,415.524 930.5,410.5 Z"/></g>
<g><path style="opacity:1" fill="#e71f2e" d="M 903.5,420.5 C 904.354,426.142 905.02,431.809 905.5,437.5C 904.292,438.234 902.959,438.567 901.5,438.5C 901.5,439.5 901.5,440.5 901.5,441.5C 899.473,441.662 897.473,441.495 895.5,441C 892.117,437.518 890.784,433.351 891.5,428.5C 891.338,426.473 891.505,424.473 892,422.5C 893.675,421.405 894.842,419.905 895.5,418C 896.932,417.73 897.932,418.396 898.5,420C 900.134,420.494 901.801,420.66 903.5,420.5 Z"/></g>
<g><path style="opacity:1" fill="#edfdfe" d="M 431.5,495.5 C 429.871,493.142 428.705,490.476 428,487.5C 427.333,481.5 427.333,475.5 428,469.5C 429.804,463.199 433.97,459.532 440.5,458.5C 470.502,458.667 500.502,458.5 530.5,458C 531.485,448.917 531.818,439.751 531.5,430.5C 494.469,430.185 457.469,430.519 420.5,431.5C 423.174,429.681 426.007,428.014 429,426.5C 462.323,429.166 495.657,429.166 529,426.5C 531.328,426.817 533.161,427.984 534.5,430C 534,430.5 533.5,431 533,431.5C 532.833,434.333 532.667,437.167 532.5,440C 533.033,447.888 533.533,455.721 534,463.5C 532.068,461.962 529.901,460.795 527.5,460C 497.935,459.079 468.601,459.412 439.5,461C 437.624,462.017 435.624,462.851 433.5,463.5C 432.333,465.833 431.167,468.167 430,470.5C 429.333,476.833 429.333,483.167 430,489.5C 431.319,491.25 431.819,493.25 431.5,495.5 Z"/></g>
<g><path style="opacity:1" fill="#cb3f4e" d="M 903.5,420.5 C 906.448,425.935 907.114,431.601 905.5,437.5C 905.02,431.809 904.354,426.142 903.5,420.5 Z"/></g>
<g><path style="opacity:1" fill="#e71d2f" d="M 964.5,408.5 C 964.269,414.635 964.936,420.635 966.5,426.5C 966.377,430.458 965.044,433.958 962.5,437C 959.044,438.123 956.21,437.29 954,434.5C 952.63,428.258 952.13,421.925 952.5,415.5C 952.343,414.127 952.51,412.793 953,411.5C 954.609,416.04 955.775,420.706 956.5,425.5C 956.49,417.625 958.324,410.292 962,403.5C 962.757,405.315 963.59,406.981 964.5,408.5 Z"/></g>
<g><path style="opacity:1" fill="#4676a6" d="M 767.5,430.5 C 791.997,429.337 816.663,429.17 841.5,430C 843.708,430.191 845.708,430.691 847.5,431.5C 820.848,430.574 794.182,430.241 767.5,430.5 Z"/></g>
<g><path style="opacity:1" fill="#024c94" d="M 767.5,430.5 C 794.182,430.241 820.848,430.574 847.5,431.5C 848.609,431.557 849.609,431.89 850.5,432.5C 849.791,433.404 848.791,433.737 847.5,433.5C 847.5,434.833 847.5,436.167 847.5,437.5C 849.465,436.871 851.465,436.204 853.5,435.5C 855.688,435.307 857.355,436.141 858.5,438C 857.5,438.333 856.5,438.667 855.5,439C 857.833,439.333 860.167,439.667 862.5,440C 863.337,442.589 865.003,444.422 867.5,445.5C 869.041,449.06 870.875,452.393 873,455.5C 873.182,458.226 873.682,460.893 874.5,463.5C 875.806,522.177 875.806,580.844 874.5,639.5C 873.401,645.699 870.734,651.032 866.5,655.5C 864.167,656.167 861.833,656.833 859.5,657.5C 859.67,658.822 859.337,659.989 858.5,661C 854.654,662.086 851.32,663.919 848.5,666.5C 842.673,666.599 837.007,667.599 831.5,669.5C 797.507,670.5 763.507,670.833 729.5,670.5C 729.5,665.5 729.5,660.5 729.5,655.5C 730.978,655.762 732.311,655.429 733.5,654.5C 728.255,652.417 728.255,650.75 733.5,649.5C 733.5,648.5 733.5,647.5 733.5,646.5C 728.348,645.36 728.348,644.194 733.5,643C 764.5,642.667 795.5,642.333 826.5,642C 830.531,641.519 834.531,640.853 838.5,640C 839.252,639.329 839.586,638.496 839.5,637.5C 841.531,636.461 842.864,634.795 843.5,632.5C 844.41,630.981 845.243,629.315 846,627.5C 846.785,621.751 846.618,616.084 845.5,610.5C 844.168,606.858 842.168,606.525 839.5,609.5C 815.563,609.437 791.563,609.437 767.5,609.5C 764.37,609.3 761.37,608.634 758.5,607.5C 757.391,603.398 754.725,601.731 750.5,602.5C 750.62,600.801 750.954,599.135 751.5,597.5C 751.167,596.833 750.833,596.167 750.5,595.5C 749.571,596.689 749.238,598.022 749.5,599.5C 748.127,599.657 746.793,599.49 745.5,599C 743.239,595.235 740.239,592.402 736.5,590.5C 733.455,585.203 731.288,579.536 730,573.5C 728.73,547.516 728.23,521.516 728.5,495.5C 729.194,490.195 729.528,484.862 729.5,479.5C 731.202,472.53 732.369,465.197 733,457.5C 736.065,451.227 739.565,445.227 743.5,439.5C 750.361,433.747 758.361,430.747 767.5,430.5 Z"/></g>
<g><path style="opacity:1" fill="#e6f8fe" d="M 369.5,425.5 C 371.924,427.367 373.924,429.034 375.5,430.5C 374.168,490.03 374.168,549.53 375.5,609C 374.833,610 374.167,611 373.5,612C 364.167,612.667 354.833,612.667 345.5,612C 343.82,611.653 342.82,610.653 342.5,609C 343.822,579.108 344.489,549.108 344.5,519C 344.496,489.125 344.163,459.292 343.5,429.5C 344.035,427.729 344.869,427.396 346,428.5C 353.087,427.685 360.253,427.185 367.5,427C 368.416,426.722 369.082,426.222 369.5,425.5 Z"/></g>
<g><path style="opacity:1" fill="#014c95" d="M 694.5,447.5 C 697.001,450.357 698.668,453.691 699.5,457.5C 699.85,463.927 700.85,470.26 702.5,476.5C 702.564,478.389 702.064,480.056 701,481.5C 698.944,480.417 697.611,478.75 697,476.5C 697.335,479.602 697.835,482.769 698.5,486C 698.256,489.186 697.923,492.353 697.5,495.5C 696.5,495.5 695.5,495.5 694.5,495.5C 694.326,492.126 693.826,488.793 693,485.5C 692.667,485.833 692.333,486.167 692,486.5C 690.379,479.441 688.546,472.441 686.5,465.5C 685.506,470.456 685.173,475.456 685.5,480.5C 683.09,480.079 681.257,478.746 680,476.5C 678.493,477.505 677.327,478.838 676.5,480.5C 675.673,476.541 675.173,472.541 675,468.5C 674.292,467.619 673.458,466.953 672.5,466.5C 671.874,463.362 670.208,460.862 667.5,459C 658.104,457.352 648.771,456.685 639.5,457C 642.167,456 642.167,455 639.5,454C 628.818,453.168 618.151,453.334 607.5,454.5C 607.709,455.086 608.043,455.586 608.5,456C 606.101,456.711 603.768,456.544 601.5,455.5C 598.397,457.312 595.064,458.312 591.5,458.5C 591.5,459.833 591.5,461.167 591.5,462.5C 591.5,463.167 591.167,463.5 590.5,463.5C 590.167,463.5 589.833,463.5 589.5,463.5C 587.338,463.897 586.005,465.231 585.5,467.5C 584.509,471.445 584.176,475.445 584.5,479.5C 583.5,479.5 582.5,479.5 581.5,479.5C 581.665,475.818 581.499,472.152 581,468.5C 579.989,467.663 578.822,467.33 577.5,467.5C 578.254,476.814 578.921,486.148 579.5,495.5C 579.167,500.5 578.833,505.5 578.5,510.5C 577.28,510.887 576.613,511.72 576.5,513C 577.279,516.842 578.113,520.675 579,524.5C 579.925,525.047 580.758,525.713 581.5,526.5C 579.993,527.739 578.826,527.405 578,525.5C 577.692,526.308 577.192,526.975 576.5,527.5C 575.116,524.672 574.449,521.672 574.5,518.5C 575.276,500.48 575.609,482.48 575.5,464.5C 573.473,464.662 571.473,464.495 569.5,464C 568.648,461.638 567.148,459.805 565,458.5C 562.863,460.026 561.696,461.693 561.5,463.5C 560.548,461.955 560.215,460.288 560.5,458.5C 561.5,458.5 562.5,458.5 563.5,458.5C 564.372,455.421 564.372,452.421 563.5,449.5C 566.479,444.521 570.479,440.521 575.5,437.5C 581.471,436.606 587.137,434.773 592.5,432C 618.85,431.183 645.183,431.516 671.5,433C 674.246,434.75 677.246,435.75 680.5,436C 681.813,438.326 683.813,439.659 686.5,440C 688.453,442.953 689.953,446.119 691,449.5C 691.71,448.027 692.876,447.36 694.5,447.5 Z"/></g>
<g><path style="opacity:1" fill="#2e5c90" d="M 694.5,447.5 C 692.876,447.36 691.71,448.027 691,449.5C 689.953,446.119 688.453,442.953 686.5,440C 683.813,439.659 681.813,438.326 680.5,436C 677.246,435.75 674.246,434.75 671.5,433C 645.183,431.516 618.85,431.183 592.5,432C 587.137,434.773 581.471,436.606 575.5,437.5C 583.409,432.808 592.075,430.308 601.5,430C 623.849,429.245 646.183,429.579 668.5,431C 679.656,432.736 688.323,438.236 694.5,447.5 Z"/></g>
<g><path style="opacity:1" fill="#064c8d" d="M 345.5,431.5 C 354.349,431.174 363.016,431.507 371.5,432.5C 370.5,432.5 369.5,432.5 368.5,432.5C 368.167,664.5 367.833,664.5 367.5,432.5C 361.5,432.5 355.5,432.5 349.5,432.5C 349.5,491.167 349.5,549.833 349.5,608.5C 348.167,608.5 346.833,608.5 345.5,608.5C 345.5,549.5 345.5,490.5 345.5,431.5 Z"/></g>
<g><path style="opacity:1" fill="#004c94" d="M 371.5,432.5 C 371.667,490.834 371.5,549.168 371,607.5C 370.25,608.126 369.416,608.626 368.5,609C 361.986,609.82 355.653,609.653 349.5,608.5C 349.5,549.833 349.5,491.167 349.5,432.5C 355.5,432.5 361.5,432.5 367.5,432.5C 367.833,664.5 368.167,664.5 368.5,432.5C 369.5,432.5 370.5,432.5 371.5,432.5 Z"/></g>
<g><path style="opacity:1" fill="#124476" d="M 345.5,431.5 C 354.318,430.507 363.318,430.173 372.5,430.5C 372.5,490.5 372.5,550.5 372.5,610.5C 363.105,611.138 354.105,610.471 345.5,608.5C 346.833,608.5 348.167,608.5 349.5,608.5C 355.653,609.653 361.986,609.82 368.5,609C 369.416,608.626 370.25,608.126 371,607.5C 371.5,549.168 371.667,490.834 371.5,432.5C 363.016,431.507 354.349,431.174 345.5,431.5 Z"/></g>
<g><path style="opacity:1" fill="#024c94" d="M 440.5,458.5 C 433.97,459.532 429.804,463.199 428,469.5C 427.333,475.5 427.333,481.5 428,487.5C 428.705,490.476 429.871,493.142 431.5,495.5C 432.945,497.063 434.611,498.396 436.5,499.5C 436.414,500.496 436.748,501.329 437.5,502C 454.167,502.333 470.833,502.667 487.5,503C 491.402,504.635 495.402,504.801 499.5,503.5C 516.707,506.872 527.207,517.206 531,534.5C 531.667,548.167 531.667,561.833 531,575.5C 528.589,594.409 518.089,605.742 499.5,609.5C 466.167,609.5 432.833,609.5 399.5,609.5C 399.5,600.5 399.5,591.5 399.5,582.5C 427.515,582.2 455.515,582.534 483.5,583.5C 487.563,582.984 491.563,582.151 495.5,581C 497.452,579.588 498.785,577.755 499.5,575.5C 501.48,574.152 502.647,572.152 503,569.5C 503.167,565 503.333,560.5 503.5,556C 503.023,549.566 503.023,543.232 503.5,537C 502.061,536.009 501.061,534.676 500.5,533C 496.954,531.826 493.287,531.16 489.5,531C 468.445,530.999 447.445,529.999 426.5,528C 421.883,528.079 420.716,526.246 423,522.5C 424.243,523.336 425.41,523.003 426.5,521.5C 427.348,519.591 427.682,517.591 427.5,515.5C 423.995,514.891 421.328,516.058 419.5,519C 419.957,519.414 420.291,519.914 420.5,520.5C 418.659,521.23 416.825,521.897 415,522.5C 415.207,520.249 415.373,517.915 415.5,515.5C 414.5,515.5 413.5,515.5 412.5,515.5C 412.5,516.833 412.5,518.167 412.5,519.5C 408.686,519.349 407.019,517.349 407.5,513.5C 406.5,513.5 405.5,513.5 404.5,513.5C 401.835,511.165 400.502,508.165 400.5,504.5C 399.783,488.849 399.783,473.182 400.5,457.5C 401.675,457.719 402.675,457.386 403.5,456.5C 405.998,445.508 412.331,437.675 422.5,433C 458.165,432.5 493.832,432.333 529.5,432.5C 529.666,440.174 529.5,447.841 529,455.5C 528.5,456 528,456.5 527.5,457C 498.33,457.168 469.33,457.668 440.5,458.5 Z"/></g>
<g><path style="opacity:1" fill="#b93a46" d="M 933.5,435.5 C 933.047,436.458 932.381,437.292 931.5,438C 928.961,438.796 926.628,438.629 924.5,437.5C 927.785,437.79 930.785,437.123 933.5,435.5 Z"/></g>
<g><path style="opacity:1" fill="#c8404c" d="M 964.5,408.5 C 967.299,416.835 968.133,425.501 967,434.5C 962.625,439.381 957.958,439.715 953,435.5C 951.786,428.892 950.953,422.225 950.5,415.5C 951.167,415.5 951.833,415.5 952.5,415.5C 952.13,421.925 952.63,428.258 954,434.5C 956.21,437.29 959.044,438.123 962.5,437C 965.044,433.958 966.377,430.458 966.5,426.5C 964.936,420.635 964.269,414.635 964.5,408.5 Z"/></g>
<g><path style="opacity:1" fill="#fef0eb" d="M 863.5,399.5 C 860.681,403.957 861.014,408.29 864.5,412.5C 870.502,413.294 876.169,414.96 881.5,417.5C 881.833,417.5 882.167,417.5 882.5,417.5C 888.324,422.823 891.157,429.489 891,437.5C 891.785,439.286 892.951,440.786 894.5,442C 898.741,443.188 902.408,442.355 905.5,439.5C 905.297,441.044 904.63,442.378 903.5,443.5C 896.496,447.61 891.496,445.943 888.5,438.5C 889.046,437.228 889.379,435.894 889.5,434.5C 888.5,431.5 887.5,428.5 886.5,425.5C 883.593,422.883 880.927,420.049 878.5,417C 874.469,416.519 870.469,415.853 866.5,415C 864.067,413.87 861.734,412.704 859.5,411.5C 858.606,408.208 858.773,404.874 860,401.5C 860.71,400.027 861.876,399.36 863.5,399.5 Z"/></g>
<g><path style="opacity:1" fill="#2e5b90" d="M 743.5,439.5 C 739.565,445.227 736.065,451.227 733,457.5C 732.369,465.197 731.202,472.53 729.5,479.5C 728.466,466.825 731.299,455.159 738,444.5C 739.704,442.627 741.537,440.96 743.5,439.5 Z"/></g>
<g><path style="opacity:1" fill="#215188" d="M 440.5,458.5 C 469.33,457.668 498.33,457.168 527.5,457C 528,456.5 528.5,456 529,455.5C 529.5,447.841 529.666,440.174 529.5,432.5C 493.832,432.333 458.165,432.5 422.5,433C 412.331,437.675 405.998,445.508 403.5,456.5C 402.675,457.386 401.675,457.719 400.5,457.5C 399.783,473.182 399.783,488.849 400.5,504.5C 399.732,503.737 399.232,502.737 399,501.5C 398.141,486.134 398.475,470.801 400,455.5C 403.133,444.21 409.967,436.21 420.5,431.5C 457.469,430.519 494.469,430.185 531.5,430.5C 531.818,439.751 531.485,448.917 530.5,458C 500.502,458.5 470.502,458.667 440.5,458.5 Z"/></g>
<g><path style="opacity:1" fill="#225794" d="M 672.5,466.5 C 670.628,463.471 667.961,461.305 664.5,460C 641.833,459.333 619.167,459.333 596.5,460C 594.807,460.847 593.14,461.68 591.5,462.5C 591.5,461.167 591.5,459.833 591.5,458.5C 595.064,458.312 598.397,457.312 601.5,455.5C 603.768,456.544 606.101,456.711 608.5,456C 608.043,455.586 607.709,455.086 607.5,454.5C 618.151,453.334 628.818,453.168 639.5,454C 642.167,455 642.167,456 639.5,457C 648.771,456.685 658.104,457.352 667.5,459C 670.208,460.862 671.874,463.362 672.5,466.5 Z"/></g>
<g><path style="opacity:1" fill="#1e4d7d" d="M 278.5,462.5 C 274.798,460.434 270.798,459.267 266.5,459C 246.809,458.216 227.142,458.382 207.5,459.5C 217.812,458.168 228.478,457.501 239.5,457.5C 250.167,457.667 260.833,457.833 271.5,458C 274.361,458.54 277.028,459.54 279.5,461C 278.944,461.383 278.611,461.883 278.5,462.5 Z"/></g>
<g><path style="opacity:1" fill="#094e94" d="M 563.5,449.5 C 564.372,452.421 564.372,455.421 563.5,458.5C 562.5,458.5 561.5,458.5 560.5,458.5C 560.215,460.288 560.548,461.955 561.5,463.5C 561.696,461.693 562.863,460.026 565,458.5C 567.148,459.805 568.648,461.638 569.5,464C 571.473,464.495 573.473,464.662 575.5,464.5C 575.609,482.48 575.276,500.48 574.5,518.5C 574.449,521.672 575.116,524.672 576.5,527.5C 577.192,526.975 577.692,526.308 578,525.5C 578.826,527.405 579.993,527.739 581.5,526.5C 580.758,525.713 579.925,525.047 579,524.5C 578.113,520.675 577.279,516.842 576.5,513C 576.613,511.72 577.28,510.887 578.5,510.5C 578.833,505.5 579.167,500.5 579.5,495.5C 578.921,486.148 578.254,476.814 577.5,467.5C 578.822,467.33 579.989,467.663 581,468.5C 581.499,472.152 581.665,475.818 581.5,479.5C 582.5,479.5 583.5,479.5 584.5,479.5C 584.171,492.677 584.505,505.677 585.5,518.5C 606.585,509.59 627.252,499.923 647.5,489.5C 654.921,486.634 662.254,483.467 669.5,480C 673.547,476.229 674.547,471.729 672.5,466.5C 673.458,466.953 674.292,467.619 675,468.5C 675.173,472.541 675.673,476.541 676.5,480.5C 677.327,478.838 678.493,477.505 680,476.5C 681.257,478.746 683.09,480.079 685.5,480.5C 685.173,475.456 685.506,470.456 686.5,465.5C 688.546,472.441 690.379,479.441 692,486.5C 692.333,486.167 692.667,485.833 693,485.5C 693.826,488.793 694.326,492.126 694.5,495.5C 695.5,495.5 696.5,495.5 697.5,495.5C 697.923,492.353 698.256,489.186 698.5,486C 697.835,482.769 697.335,479.602 697,476.5C 697.611,478.75 698.944,480.417 701,481.5C 702.064,480.056 702.564,478.389 702.5,476.5C 700.85,470.26 699.85,463.927 699.5,457.5C 704.552,469.318 704.719,481.318 700,493.5C 697.872,496.63 695.372,499.463 692.5,502C 661.319,516.093 630.319,530.426 599.5,545C 594.812,547.007 590.479,549.507 586.5,552.5C 583.516,552.787 582.183,554.454 582.5,557.5C 580.576,555.515 578.576,553.515 576.5,551.5C 575.28,551.887 574.613,552.72 574.5,554C 577.091,556.423 579.091,559.257 580.5,562.5C 578.426,568.085 576.593,573.752 575,579.5C 573.98,578.109 573.147,576.609 572.5,575C 564.711,575.355 564.544,577.188 572,580.5C 572.889,583.687 573.722,586.853 574.5,590C 573.347,591.883 571.681,592.716 569.5,592.5C 568.204,586.638 565.371,581.638 561,577.5C 560.505,579.473 560.338,581.473 560.5,583.5C 561.822,583.33 562.989,583.663 564,584.5C 564.333,586.833 564.667,589.167 565,591.5C 567.764,594.417 570.264,597.417 572.5,600.5C 570.284,599.797 568.451,598.464 567,596.5C 560.609,588.67 556.942,579.67 556,569.5C 555.333,536.167 555.333,502.833 556,469.5C 556.858,462.078 559.358,455.412 563.5,449.5 Z"/></g>
<g><path style="opacity:1" fill="#fdfefd" d="M 672.5,466.5 C 674.547,471.729 673.547,476.229 669.5,480C 662.254,483.467 654.921,486.634 647.5,489.5C 643.206,489.182 639.206,490.015 635.5,492C 634.027,492.71 633.36,493.876 633.5,495.5C 631.473,495.338 629.473,495.505 627.5,496C 628.5,496.333 629.5,496.667 630.5,497C 627.252,497.628 624.252,498.794 621.5,500.5C 619.523,499.54 617.523,498.54 615.5,497.5C 614.5,498 613.5,498.5 612.5,499C 613.833,500 615.167,501 616.5,502C 616.167,502.333 615.833,502.667 615.5,503C 613.167,502.667 610.833,502.333 608.5,502C 607.921,503.908 607.921,505.575 608.5,507C 603.518,507.662 599.184,509.662 595.5,513C 592.607,514.149 589.607,514.649 586.5,514.5C 586.333,500.496 586.5,486.496 587,472.5C 589.03,469.841 590.197,466.841 590.5,463.5C 591.167,463.5 591.5,463.167 591.5,462.5C 593.14,461.68 594.807,460.847 596.5,460C 619.167,459.333 641.833,459.333 664.5,460C 667.961,461.305 670.628,463.471 672.5,466.5 Z"/></g>
<g><path style="opacity:1" fill="#1f528a" d="M 845.5,468.5 C 843.152,464.147 839.485,461.48 834.5,460.5C 812.976,459.103 791.31,459.27 769.5,461C 766.379,462.306 763.713,464.14 761.5,466.5C 761.714,464.856 761.38,463.356 760.5,462C 761.672,461.581 762.672,460.915 763.5,460C 789.145,458.457 814.812,458.123 840.5,459C 843.554,461.496 845.221,464.662 845.5,468.5 Z"/></g>
<g><path style="opacity:1" fill="#ecfcfe" d="M 834.5,460.5 C 839.485,461.48 843.152,464.147 845.5,468.5C 846.646,501.804 846.812,535.137 846,568.5C 845.478,571.281 844.311,573.615 842.5,575.5C 842.196,574.85 841.863,574.183 841.5,573.5C 842.806,572.088 843.64,570.421 844,568.5C 844.533,546.777 845.033,525.11 845.5,503.5C 844.712,492.86 844.212,482.194 844,471.5C 843.125,468.785 841.292,467.452 838.5,467.5C 838.039,464.697 836.705,462.363 834.5,460.5 Z"/></g>
<g><path style="opacity:1" fill="#205888" d="M 589.5,463.5 C 588.073,466.024 586.906,468.69 586,471.5C 585.5,487.163 585.333,502.83 585.5,518.5C 584.505,505.677 584.171,492.677 584.5,479.5C 584.176,475.445 584.509,471.445 585.5,467.5C 586.005,465.231 587.338,463.897 589.5,463.5 Z"/></g>
<g><path style="opacity:1" fill="#15497b" d="M 309.5,449.5 C 311.899,453.048 313.399,457.048 314,461.5C 314.5,510.832 314.667,560.166 314.5,609.5C 313.5,609.5 312.5,609.5 311.5,609.5C 312.824,585.215 313.49,560.715 313.5,536C 313.333,511.833 313.167,487.667 313,463.5C 310.057,459.371 308.89,454.704 309.5,449.5 Z"/></g>
<g><path style="opacity:1" fill="#184b7f" d="M 850.5,432.5 C 864.805,436.977 873.305,446.643 876,461.5C 876.667,519.167 876.667,576.833 876,634.5C 875.802,636.382 875.302,638.048 874.5,639.5C 875.806,580.844 875.806,522.177 874.5,463.5C 873.682,460.893 873.182,458.226 873,455.5C 870.875,452.393 869.041,449.06 867.5,445.5C 865.003,444.422 863.337,442.589 862.5,440C 860.167,439.667 857.833,439.333 855.5,439C 856.5,438.667 857.5,438.333 858.5,438C 857.355,436.141 855.688,435.307 853.5,435.5C 851.465,436.204 849.465,436.871 847.5,437.5C 847.5,436.167 847.5,434.833 847.5,433.5C 848.791,433.737 849.791,433.404 850.5,432.5 Z"/></g>
<g><path style="opacity:1" fill="#164e84" d="M 436.5,499.5 C 438.086,500.148 439.753,500.648 441.5,501C 457.833,501.333 474.167,501.667 490.5,502C 493.695,502.181 496.695,502.681 499.5,503.5C 495.402,504.801 491.402,504.635 487.5,503C 470.833,502.667 454.167,502.333 437.5,502C 436.748,501.329 436.414,500.496 436.5,499.5 Z"/></g>
<g><path style="opacity:1" fill="#ecfafd" d="M 589.5,463.5 C 589.833,463.5 590.167,463.5 590.5,463.5C 590.197,466.841 589.03,469.841 587,472.5C 586.5,486.496 586.333,500.496 586.5,514.5C 589.607,514.649 592.607,514.149 595.5,513C 599.184,509.662 603.518,507.662 608.5,507C 607.921,505.575 607.921,503.908 608.5,502C 610.833,502.333 613.167,502.667 615.5,503C 615.833,502.667 616.167,502.333 616.5,502C 615.167,501 613.833,500 612.5,499C 613.5,498.5 614.5,498 615.5,497.5C 617.523,498.54 619.523,499.54 621.5,500.5C 624.252,498.794 627.252,497.628 630.5,497C 629.5,496.667 628.5,496.333 627.5,496C 629.473,495.505 631.473,495.338 633.5,495.5C 633.36,493.876 634.027,492.71 635.5,492C 639.206,490.015 643.206,489.182 647.5,489.5C 627.252,499.923 606.585,509.59 585.5,518.5C 585.333,502.83 585.5,487.163 586,471.5C 586.906,468.69 588.073,466.024 589.5,463.5 Z"/></g>
<g><path style="opacity:1" fill="#164e8c" d="M 404.5,513.5 C 405.5,513.5 406.5,513.5 407.5,513.5C 407.019,517.349 408.686,519.349 412.5,519.5C 412.5,518.167 412.5,516.833 412.5,515.5C 413.5,515.5 414.5,515.5 415.5,515.5C 415.373,517.915 415.207,520.249 415,522.5C 416.825,521.897 418.659,521.23 420.5,520.5C 420.291,519.914 419.957,519.414 419.5,519C 421.328,516.058 423.995,514.891 427.5,515.5C 427.682,517.591 427.348,519.591 426.5,521.5C 425.41,523.003 424.243,523.336 423,522.5C 420.716,526.246 421.883,528.079 426.5,528C 447.445,529.999 468.445,530.999 489.5,531C 493.287,531.16 496.954,531.826 500.5,533C 501.061,534.676 502.061,536.009 503.5,537C 503.023,543.232 503.023,549.566 503.5,556C 503.333,560.5 503.167,565 503,569.5C 502.647,572.152 501.48,574.152 499.5,575.5C 502.473,565.088 503.306,554.422 502,543.5C 499.996,536.233 495.162,532.399 487.5,532C 469.5,531.667 451.5,531.333 433.5,531C 420.569,530.174 410.902,524.34 404.5,513.5 Z"/></g>
<g><path style="opacity:1" fill="#effdfe" d="M 278.5,462.5 C 283.26,467.037 285.593,472.704 285.5,479.5C 285.5,523.167 285.5,566.833 285.5,610.5C 295.167,610.5 304.833,610.5 314.5,610.5C 305.154,610.885 295.821,611.885 286.5,613.5C 283.689,612.224 281.522,610.224 280,607.5C 279.168,594.133 279.501,580.799 281,567.5C 281.333,581.167 281.667,594.833 282,608.5C 282.414,608.043 282.914,607.709 283.5,607.5C 284.667,564.504 284.833,521.504 284,478.5C 282.514,474.224 281.181,469.891 280,465.5C 277.909,464.5 276.243,465.167 275,467.5C 275.085,464.152 273.585,461.985 270.5,461C 249.508,459.255 228.508,459.088 207.5,460.5C 207.5,460.167 207.5,459.833 207.5,459.5C 227.142,458.382 246.809,458.216 266.5,459C 270.798,459.267 274.798,460.434 278.5,462.5 Z"/></g>
<g><path style="opacity:1" fill="#fafbfb" d="M 834.5,460.5 C 836.705,462.363 838.039,464.697 838.5,467.5C 841.292,467.452 843.125,468.785 844,471.5C 844.212,482.194 844.712,492.86 845.5,503.5C 845.033,525.11 844.533,546.777 844,568.5C 843.64,570.421 842.806,572.088 841.5,573.5C 841.863,574.183 842.196,574.85 842.5,575.5C 842.047,576.458 841.381,577.292 840.5,578C 837.56,579.152 834.56,580.152 831.5,581C 812.167,581.667 792.833,581.667 773.5,581C 764.102,578.935 758.936,573.101 758,563.5C 757.5,534.169 757.333,504.835 757.5,475.5C 758.517,472.456 759.851,469.456 761.5,466.5C 763.713,464.14 766.379,462.306 769.5,461C 791.31,459.27 812.976,459.103 834.5,460.5 Z"/></g>
<g><path style="opacity:1" fill="#88adcf" d="M 166.5,367.5 C 166.5,448.5 166.5,529.5 166.5,610.5C 176.167,610.5 185.833,610.5 195.5,610.5C 195.168,565.33 195.501,520.33 196.5,475.5C 196.5,520.833 196.5,566.167 196.5,611.5C 186.167,611.5 175.833,611.5 165.5,611.5C 165.167,529.998 165.501,448.665 166.5,367.5 Z"/></g>
<g><path style="opacity:1" fill="#014c94" d="M 582.5,557.5 C 582.597,563.282 584.097,568.615 587,573.5C 587.333,575.5 587.667,577.5 588,579.5C 589.509,580.09 591.009,580.756 592.5,581.5C 591.256,583.133 591.756,584.133 594,584.5C 596.135,583.873 598.302,583.373 600.5,583C 634.498,582.5 668.498,582.333 702.5,582.5C 702.5,591.5 702.5,600.5 702.5,609.5C 665.5,609.5 628.5,609.5 591.5,609.5C 583.939,608.885 577.606,605.885 572.5,600.5C 570.264,597.417 567.764,594.417 565,591.5C 564.667,589.167 564.333,586.833 564,584.5C 562.989,583.663 561.822,583.33 560.5,583.5C 560.338,581.473 560.505,579.473 561,577.5C 565.371,581.638 568.204,586.638 569.5,592.5C 571.681,592.716 573.347,591.883 574.5,590C 573.722,586.853 572.889,583.687 572,580.5C 564.544,577.188 564.711,575.355 572.5,575C 573.147,576.609 573.98,578.109 575,579.5C 576.593,573.752 578.426,568.085 580.5,562.5C 579.091,559.257 577.091,556.423 574.5,554C 574.613,552.72 575.28,551.887 576.5,551.5C 578.576,553.515 580.576,555.515 582.5,557.5 Z"/></g>
<g><path style="opacity:1" fill="#e6f8fc" d="M 728.5,495.5 C 728.23,521.516 728.73,547.516 730,573.5C 731.288,579.536 733.455,585.203 736.5,590.5C 738.787,594.122 741.453,597.455 744.5,600.5C 741.277,598.826 738.444,596.493 736,593.5C 734.638,590.764 732.804,588.431 730.5,586.5C 729.846,584.885 729.346,583.218 729,581.5C 727.392,552.677 727.225,524.011 728.5,495.5 Z"/></g>
<g><path style="opacity:1" fill="#144a7e" d="M 499.5,575.5 C 498.785,577.755 497.452,579.588 495.5,581C 491.563,582.151 487.563,582.984 483.5,583.5C 455.515,582.534 427.515,582.2 399.5,582.5C 399.5,591.5 399.5,600.5 399.5,609.5C 432.833,609.5 466.167,609.5 499.5,609.5C 466.004,610.498 432.337,610.832 398.5,610.5C 398.5,600.833 398.5,591.167 398.5,581.5C 429.168,581.667 459.835,581.5 490.5,581C 494.157,580.163 497.157,578.33 499.5,575.5 Z"/></g>
<g><path style="opacity:1" fill="#134b81" d="M 586.5,552.5 C 584.159,561.518 585.826,569.851 591.5,577.5C 593.336,578.919 595.336,580.086 597.5,581C 632.832,581.5 668.165,581.667 703.5,581.5C 703.5,591.167 703.5,600.833 703.5,610.5C 668.167,610.5 632.833,610.5 597.5,610.5C 595.265,610.795 593.265,610.461 591.5,609.5C 628.5,609.5 665.5,609.5 702.5,609.5C 702.5,600.5 702.5,591.5 702.5,582.5C 668.498,582.333 634.498,582.5 600.5,583C 598.302,583.373 596.135,583.873 594,584.5C 591.756,584.133 591.256,583.133 592.5,581.5C 591.009,580.756 589.509,580.09 588,579.5C 587.667,577.5 587.333,575.5 587,573.5C 584.097,568.615 582.597,563.282 582.5,557.5C 582.183,554.454 583.516,552.787 586.5,552.5 Z"/></g>
<g><path style="opacity:1" fill="#134d8b" d="M 845.5,468.5 C 846.79,469.058 847.623,470.058 848,471.5C 848.667,503.833 848.667,536.167 848,568.5C 845.698,576.635 840.531,581.969 832.5,584.5C 823.495,583.194 814.328,582.527 805,582.5C 796.167,582.667 787.333,582.833 778.5,583C 795.789,584.262 813.123,584.929 830.5,585C 806.818,585.682 783.151,586.348 759.5,587C 758.098,585.658 758.431,584.824 760.5,584.5C 763.028,585.942 765.695,586.442 768.5,586C 766.754,585.529 765.087,584.862 763.5,584C 767.167,583.667 770.833,583.333 774.5,583C 769.219,582.264 764.386,580.431 760,577.5C 759.505,575.527 759.338,573.527 759.5,571.5C 756.5,571.167 755.167,572.5 755.5,575.5C 754.5,575.5 753.5,575.5 752.5,575.5C 752.504,573.158 753.337,571.158 755,569.5C 755.823,554.925 755.656,540.425 754.5,526C 755.191,524.933 755.691,523.766 756,522.5C 756.169,506.661 756.669,490.995 757.5,475.5C 757.333,504.835 757.5,534.169 758,563.5C 758.936,573.101 764.102,578.935 773.5,581C 792.833,581.667 812.167,581.667 831.5,581C 834.56,580.152 837.56,579.152 840.5,578C 841.381,577.292 842.047,576.458 842.5,575.5C 844.311,573.615 845.478,571.281 846,568.5C 846.812,535.137 846.646,501.804 845.5,468.5 Z"/></g>
<g><path style="opacity:1" fill="#f4a197" d="M 834.5,527.5 C 835.113,530.969 833.779,532.969 830.5,533.5C 829.688,539.115 826.855,543.449 822,546.5C 821.634,548.452 820.801,550.118 819.5,551.5C 813.835,555.179 807.502,556.845 800.5,556.5C 794.211,556.623 788.544,554.956 783.5,551.5C 786.574,551.873 789.574,552.539 792.5,553.5C 793.624,554.809 795.124,555.475 797,555.5C 800.151,554.907 803.318,554.407 806.5,554C 809.228,551.608 812.228,549.608 815.5,548C 815.616,546.732 815.949,545.398 816.5,544C 817.448,543.517 818.448,543.351 819.5,543.5C 818.597,539.243 820.264,536.743 824.5,536C 825.376,534.414 826.376,532.914 827.5,531.5C 830.349,530.9 832.682,529.567 834.5,527.5 Z"/></g>
<g><path style="opacity:1" fill="#f2b9ad" d="M 834.5,527.5 C 835.167,527.5 835.833,527.5 836.5,527.5C 834.644,536.372 830.311,543.872 823.5,550C 822.255,550.791 820.922,551.291 819.5,551.5C 820.801,550.118 821.634,548.452 822,546.5C 826.855,543.449 829.688,539.115 830.5,533.5C 833.779,532.969 835.113,530.969 834.5,527.5 Z"/></g>
<g><path style="opacity:1" fill="#f88a80" d="M 835.5,509.5 C 836.97,512.886 837.637,516.553 837.5,520.5C 837.497,523.025 837.163,525.359 836.5,527.5C 835.833,527.5 835.167,527.5 834.5,527.5C 832.682,529.567 830.349,530.9 827.5,531.5C 826.376,532.914 825.376,534.414 824.5,536C 820.264,536.743 818.597,539.243 819.5,543.5C 818.448,543.351 817.448,543.517 816.5,544C 815.949,545.398 815.616,546.732 815.5,548C 812.228,549.608 809.228,551.608 806.5,554C 803.318,554.407 800.151,554.907 797,555.5C 795.124,555.475 793.624,554.809 792.5,553.5C 793.873,553.657 795.207,553.49 796.5,553C 798.692,549.308 801.692,546.474 805.5,544.5C 804.975,543.808 804.308,543.308 803.5,543C 806.232,542.587 808.899,541.92 811.5,541C 814.718,538.223 818.385,536.223 822.5,535C 824.568,532.358 826.235,529.525 827.5,526.5C 829.092,527.602 829.925,526.935 830,524.5C 831.378,522.787 833.045,521.453 835,520.5C 835.499,516.848 835.665,513.182 835.5,509.5 Z"/></g>
<g><path style="opacity:1" fill="#f46c66" d="M 827.5,526.5 C 826.235,529.525 824.568,532.358 822.5,535C 818.385,536.223 814.718,538.223 811.5,541C 808.899,541.92 806.232,542.587 803.5,543C 804.308,543.308 804.975,543.808 805.5,544.5C 801.692,546.474 798.692,549.308 796.5,553C 795.207,553.49 793.873,553.657 792.5,553.5C 789.574,552.539 786.574,551.873 783.5,551.5C 778.5,548.5 774.5,544.5 771.5,539.5C 773.797,540.835 775.797,542.668 777.5,545C 778.901,545.41 780.234,545.91 781.5,546.5C 785.082,551.295 789.416,551.795 794.5,548C 795.337,546.989 795.67,545.822 795.5,544.5C 796.873,544.657 798.207,544.49 799.5,544C 798.167,543.333 798.167,542.667 799.5,542C 801.5,541.667 803.5,541.333 805.5,541C 806.056,540.617 806.389,540.117 806.5,539.5C 814.985,537.431 821.985,533.098 827.5,526.5 Z"/></g>
<g><path style="opacity:1" fill="#f45552" d="M 802.5,539.5 C 803.833,539.5 805.167,539.5 806.5,539.5C 806.389,540.117 806.056,540.617 805.5,541C 803.5,541.333 801.5,541.667 799.5,542C 798.167,542.667 798.167,543.333 799.5,544C 798.207,544.49 796.873,544.657 795.5,544.5C 795.67,545.822 795.337,546.989 794.5,548C 789.416,551.795 785.082,551.295 781.5,546.5C 782.376,546.631 783.043,546.298 783.5,545.5C 782.147,544.476 781.48,543.143 781.5,541.5C 788.67,541.093 795.67,540.426 802.5,539.5 Z"/></g>
<g><path style="opacity:1" fill="#ee4243" d="M 766.5,513.5 C 767.404,514.209 767.737,515.209 767.5,516.5C 767.704,518.685 768.37,520.685 769.5,522.5C 768.366,524.966 768.199,527.633 769,530.5C 769.414,530.043 769.914,529.709 770.5,529.5C 771.634,532.167 772.634,534.833 773.5,537.5C 774.833,537.5 776.167,537.5 777.5,537.5C 777.281,536.325 777.614,535.325 778.5,534.5C 781.215,537.192 784.548,538.692 788.5,539C 793.155,539.499 797.821,539.666 802.5,539.5C 795.67,540.426 788.67,541.093 781.5,541.5C 781.48,543.143 782.147,544.476 783.5,545.5C 783.043,546.298 782.376,546.631 781.5,546.5C 780.234,545.91 778.901,545.41 777.5,545C 775.797,542.668 773.797,540.835 771.5,539.5C 766.785,531.409 765.119,522.743 766.5,513.5 Z"/></g>
<g><path style="opacity:1" fill="#f47570" d="M 828.5,497.5 C 831.853,500.868 834.186,504.868 835.5,509.5C 835.665,513.182 835.499,516.848 835,520.5C 833.045,521.453 831.378,522.787 830,524.5C 829.925,526.935 829.092,527.602 827.5,526.5C 827.878,524.079 828.545,521.746 829.5,519.5C 830.834,516.573 832.167,513.573 833.5,510.5C 832.085,506.015 830.418,501.681 828.5,497.5 Z"/></g>
<g><path style="opacity:1" fill="#f75a59" d="M 826.5,495.5 C 827.5,495.833 828.167,496.5 828.5,497.5C 830.418,501.681 832.085,506.015 833.5,510.5C 832.167,513.573 830.834,516.573 829.5,519.5C 829.511,517.453 829.844,515.453 830.5,513.5C 829.975,507.233 828.641,501.233 826.5,495.5 Z"/></g>
<g><path style="opacity:1" fill="#f68387" d="M 790.5,499.5 C 790.123,501.258 789.456,502.925 788.5,504.5C 786.518,505.216 784.851,506.383 783.5,508C 781.167,508.333 778.833,508.667 776.5,509C 776.385,514.948 773.385,517.448 767.5,516.5C 767.737,515.209 767.404,514.209 766.5,513.5C 766.875,511.302 767.542,509.302 768.5,507.5C 770.512,505.867 772.179,503.867 773.5,501.5C 775.283,503.023 775.949,505.023 775.5,507.5C 777.857,507.663 780.19,507.497 782.5,507C 783.056,506.617 783.389,506.117 783.5,505.5C 786.128,503.874 788.461,501.874 790.5,499.5 Z"/></g>
<g><path style="opacity:1" fill="#ee3439" d="M 795.5,485.5 C 795.833,485.5 796.167,485.5 796.5,485.5C 802.203,485.375 807.87,485.708 813.5,486.5C 818.322,488.748 822.655,491.748 826.5,495.5C 824.011,495.702 821.677,495.202 819.5,494C 820.833,493.333 820.833,492.667 819.5,492C 817.19,491.503 814.857,491.337 812.5,491.5C 812.5,492.5 812.5,493.5 812.5,494.5C 811.127,494.343 809.793,494.51 808.5,495C 808.957,495.414 809.291,495.914 809.5,496.5C 808,498.833 806.5,501.167 805,503.5C 798.297,508.869 792.131,515.036 786.5,522C 782.673,523.187 780.339,525.687 779.5,529.5C 777.61,529.703 776.11,529.037 775,527.5C 773.421,528.8 772.255,528.466 771.5,526.5C 772.833,526.5 774.167,526.5 775.5,526.5C 776.428,523.87 777.428,521.204 778.5,518.5C 780.232,516.717 781.732,514.717 783,512.5C 783.333,513.167 783.667,513.833 784,514.5C 786.285,512.093 788.451,509.593 790.5,507C 791.825,507.148 792.992,506.982 794,506.5C 796.696,503.09 799.196,499.59 801.5,496C 803.897,494.282 806.564,493.115 809.5,492.5C 808.605,490.693 807.272,489.36 805.5,488.5C 801.529,487.803 797.529,487.303 793.5,487C 794.416,486.722 795.082,486.222 795.5,485.5 Z"/></g>
<g><path style="opacity:1" fill="#f6575c" d="M 795.5,485.5 C 795.082,486.222 794.416,486.722 793.5,487C 797.529,487.303 801.529,487.803 805.5,488.5C 807.272,489.36 808.605,490.693 809.5,492.5C 806.564,493.115 803.897,494.282 801.5,496C 799.196,499.59 796.696,503.09 794,506.5C 792.992,506.982 791.825,507.148 790.5,507C 788.451,509.593 786.285,512.093 784,514.5C 783.667,513.833 783.333,513.167 783,512.5C 781.732,514.717 780.232,516.717 778.5,518.5C 777.428,521.204 776.428,523.87 775.5,526.5C 774.167,526.5 772.833,526.5 771.5,526.5C 770.4,525.395 769.733,524.062 769.5,522.5C 768.37,520.685 767.704,518.685 767.5,516.5C 773.385,517.448 776.385,514.948 776.5,509C 778.833,508.667 781.167,508.333 783.5,508C 784.851,506.383 786.518,505.216 788.5,504.5C 789.456,502.925 790.123,501.258 790.5,499.5C 793.353,498.811 795.019,496.978 795.5,494C 796.793,493.51 798.127,493.343 799.5,493.5C 799.773,491.549 799.107,490.049 797.5,489C 793.552,488.255 789.885,488.755 786.5,490.5C 785.348,491.625 784.348,491.625 783.5,490.5C 784.058,489.21 785.058,488.377 786.5,488C 789.353,486.57 792.353,485.737 795.5,485.5 Z"/></g>
<g><path style="opacity:1" fill="#fcf5f4" d="M 791.5,493.5 C 791.483,495.565 791.15,497.565 790.5,499.5C 788.461,501.874 786.128,503.874 783.5,505.5C 776.95,507.784 775.116,505.784 778,499.5C 781.057,493.884 785.557,491.884 791.5,493.5 Z"/></g>
<g><path style="opacity:1" fill="#ea2026" d="M 826.5,495.5 C 828.641,501.233 829.975,507.233 830.5,513.5C 829.844,515.453 829.511,517.453 829.5,519.5C 828.545,521.746 827.878,524.079 827.5,526.5C 821.985,533.098 814.985,537.431 806.5,539.5C 805.167,539.5 803.833,539.5 802.5,539.5C 797.821,539.666 793.155,539.499 788.5,539C 784.548,538.692 781.215,537.192 778.5,534.5C 777.614,535.325 777.281,536.325 777.5,537.5C 776.167,537.5 774.833,537.5 773.5,537.5C 772.634,534.833 771.634,532.167 770.5,529.5C 769.914,529.709 769.414,530.043 769,530.5C 768.199,527.633 768.366,524.966 769.5,522.5C 769.733,524.062 770.4,525.395 771.5,526.5C 772.255,528.466 773.421,528.8 775,527.5C 776.11,529.037 777.61,529.703 779.5,529.5C 780.339,525.687 782.673,523.187 786.5,522C 792.131,515.036 798.297,508.869 805,503.5C 806.5,501.167 808,498.833 809.5,496.5C 809.291,495.914 808.957,495.414 808.5,495C 809.793,494.51 811.127,494.343 812.5,494.5C 812.5,493.5 812.5,492.5 812.5,491.5C 814.857,491.337 817.19,491.503 819.5,492C 820.833,492.667 820.833,493.333 819.5,494C 821.677,495.202 824.011,495.702 826.5,495.5 Z"/></g>
<g><path style="opacity:1" fill="#e99799" d="M 783.5,490.5 C 784.348,491.625 785.348,491.625 786.5,490.5C 788.167,490.5 789.833,490.5 791.5,490.5C 791.5,491.5 791.5,492.5 791.5,493.5C 785.557,491.884 781.057,493.884 778,499.5C 775.116,505.784 776.95,507.784 783.5,505.5C 783.389,506.117 783.056,506.617 782.5,507C 780.19,507.497 777.857,507.663 775.5,507.5C 775.949,505.023 775.283,503.023 773.5,501.5C 772.179,503.867 770.512,505.867 768.5,507.5C 769.636,503.229 771.802,499.563 775,496.5C 777.279,493.619 780.112,491.619 783.5,490.5 Z"/></g>
<g><path style="opacity:1" fill="#f5797f" d="M 790.5,499.5 C 791.15,497.565 791.483,495.565 791.5,493.5C 791.5,492.5 791.5,491.5 791.5,490.5C 789.833,490.5 788.167,490.5 786.5,490.5C 789.885,488.755 793.552,488.255 797.5,489C 799.107,490.049 799.773,491.549 799.5,493.5C 798.127,493.343 796.793,493.51 795.5,494C 795.019,496.978 793.353,498.811 790.5,499.5 Z"/></g>
<g><path style="opacity:1" fill="#facac3" d="M 796.5,485.5 C 801.316,484.35 806.316,484.184 811.5,485C 812.416,485.278 813.082,485.778 813.5,486.5C 807.87,485.708 802.203,485.375 796.5,485.5 Z"/></g>
<g><path style="opacity:1" fill="#1e5188" d="M 736.5,590.5 C 740.239,592.402 743.239,595.235 745.5,599C 746.793,599.49 748.127,599.657 749.5,599.5C 749.238,598.022 749.571,596.689 750.5,595.5C 750.833,596.167 751.167,596.833 751.5,597.5C 750.954,599.135 750.62,600.801 750.5,602.5C 754.725,601.731 757.391,603.398 758.5,607.5C 756.046,606.773 753.713,605.773 751.5,604.5C 749.15,603.139 746.816,601.806 744.5,600.5C 741.453,597.455 738.787,594.122 736.5,590.5 Z"/></g>
<g><path style="opacity:1" fill="#648eb6" d="M 285.5,479.5 C 286.499,522.663 286.832,565.997 286.5,609.5C 294.833,609.5 303.167,609.5 311.5,609.5C 312.5,609.5 313.5,609.5 314.5,609.5C 314.5,609.833 314.5,610.167 314.5,610.5C 304.833,610.5 295.167,610.5 285.5,610.5C 285.5,566.833 285.5,523.167 285.5,479.5 Z"/></g>
<g><path style="opacity:1" fill="#144a7c" d="M 845.5,610.5 C 819.328,610.831 793.328,610.498 767.5,609.5C 791.563,609.437 815.563,609.437 839.5,609.5C 842.168,606.525 844.168,606.858 845.5,610.5 Z"/></g>
<g><path style="opacity:1" fill="#92b8d7" d="M 703.5,581.5 C 704.494,591.319 704.827,601.319 704.5,611.5C 668.663,611.832 632.996,611.498 597.5,610.5C 632.833,610.5 668.167,610.5 703.5,610.5C 703.5,600.833 703.5,591.167 703.5,581.5 Z"/></g>
<g><path style="opacity:1" fill="#d6edf6" d="M 751.5,604.5 C 753.713,605.773 756.046,606.773 758.5,607.5C 761.37,608.634 764.37,609.3 767.5,609.5C 793.328,610.498 819.328,610.831 845.5,610.5C 846.618,616.084 846.785,621.751 846,627.5C 845.243,629.315 844.41,630.981 843.5,632.5C 843.531,629.041 844.198,625.708 845.5,622.5C 844.833,621.167 844.167,619.833 843.5,618.5C 845.114,615.843 844.448,614.01 841.5,613C 815.5,612.667 789.5,612.333 763.5,612C 760.268,609.592 756.601,607.926 752.5,607C 751.748,606.329 751.414,605.496 751.5,604.5 Z"/></g>
<g><path style="opacity:1" fill="#c1c1c1" d="M 420.5,643.5 C 418.085,642.186 415.252,641.519 412,641.5C 408.748,641.519 405.915,642.186 403.5,643.5C 402.596,642.791 402.263,641.791 402.5,640.5C 408.833,640.5 415.167,640.5 421.5,640.5C 421.737,641.791 421.404,642.791 420.5,643.5 Z"/></g>
<g><path style="opacity:1" fill="#0e4a86" d="M 839.5,637.5 C 839.586,638.496 839.252,639.329 838.5,640C 834.531,640.853 830.531,641.519 826.5,642C 795.5,642.333 764.5,642.667 733.5,643C 728.348,644.194 728.348,645.36 733.5,646.5C 733.5,647.5 733.5,648.5 733.5,649.5C 728.255,650.75 728.255,652.417 733.5,654.5C 732.311,655.429 730.978,655.762 729.5,655.5C 729.5,660.5 729.5,665.5 729.5,670.5C 728.506,661.014 728.173,651.348 728.5,641.5C 760.835,641.667 793.168,641.5 825.5,641C 830.353,640.453 835.02,639.287 839.5,637.5 Z"/></g>
<g><path style="opacity:1" fill="#9d9d9d" d="M 624.5,640.5 C 625.5,640.5 626.5,640.5 627.5,640.5C 627.5,641.833 627.5,643.167 627.5,644.5C 626.5,644.5 625.5,644.5 624.5,644.5C 624.5,643.167 624.5,641.833 624.5,640.5 Z"/></g>
<g><path style="opacity:1" fill="#707070" d="M 575.5,641.5 C 576.289,641.783 576.956,642.283 577.5,643C 572.354,646.351 571.687,645.851 575.5,641.5 Z"/></g>
<g><path style="opacity:1" fill="#707070" d="M 303.5,642.5 C 306.452,642.991 309.119,643.325 311.5,643.5C 311.291,644.086 310.957,644.586 310.5,645C 308.074,644.952 305.741,645.119 303.5,645.5C 302.438,644.575 302.438,643.575 303.5,642.5 Z"/></g>
<g><path style="opacity:1" fill="#606060" d="M 225.5,641.5 C 226.823,644.938 227.49,648.771 227.5,653C 227.167,656.833 226.833,660.667 226.5,664.5C 225.503,656.862 225.169,649.196 225.5,641.5 Z"/></g>
<g><path style="opacity:1" fill="#636363" d="M 420.5,643.5 C 418.167,643.5 415.833,643.5 413.5,643.5C 413.5,650.833 413.5,658.167 413.5,665.5C 412.5,665.5 411.5,665.5 410.5,665.5C 410.5,658.167 410.5,650.833 410.5,643.5C 408.167,643.5 405.833,643.5 403.5,643.5C 405.915,642.186 408.748,641.519 412,641.5C 415.252,641.519 418.085,642.186 420.5,643.5 Z"/></g>
<g><path style="opacity:1" fill="#5f5f5f" d="M 549.5,641.5 C 550.823,644.938 551.49,648.771 551.5,653C 551.167,656.833 550.833,660.667 550.5,664.5C 549.503,656.862 549.169,649.196 549.5,641.5 Z"/></g>
<g><path style="opacity:1" fill="#717171" d="M 435.5,648.5 C 439.24,648.241 442.906,648.574 446.5,649.5C 448.229,651.851 448.896,654.518 448.5,657.5C 444.5,657.5 440.5,657.5 436.5,657.5C 436.146,663.204 438.813,665.037 444.5,663C 445.337,661.989 445.67,660.822 445.5,659.5C 446.5,659.5 447.5,659.5 448.5,659.5C 448.714,661.144 448.38,662.644 447.5,664C 439.036,667.919 434.37,665.419 433.5,656.5C 433.564,653.65 434.23,650.983 435.5,648.5 Z"/></g>
<g><path style="opacity:1" fill="#f1f1f1" d="M 437.5,650.5 C 440.167,650.5 442.833,650.5 445.5,650.5C 445.5,652.167 445.5,653.833 445.5,655.5C 442.5,655.5 439.5,655.5 436.5,655.5C 436.366,653.708 436.699,652.042 437.5,650.5 Z"/></g>
<g><path style="opacity:1" fill="#6e6e6e" d="M 169.5,640.5 C 173.546,640.15 177.38,640.817 181,642.5C 181.534,647.918 180.7,648.418 178.5,644C 175.167,643.333 171.833,643.333 168.5,644C 167.167,646.333 167.167,648.667 168.5,651C 172.584,651.231 176.584,651.898 180.5,653C 182.993,656.308 183.159,659.808 181,663.5C 176.696,665.414 172.196,665.914 167.5,665C 165.381,662.782 165.048,660.282 166.5,657.5C 167.452,659.045 167.785,660.712 167.5,662.5C 171.5,662.5 175.5,662.5 179.5,662.5C 179.768,659.881 179.435,657.381 178.5,655C 174.145,654.89 169.978,654.057 166,652.5C 165.333,649.167 165.333,645.833 166,642.5C 167.302,641.915 168.469,641.249 169.5,640.5 Z"/></g>
<g><path style="opacity:1" fill="#6e6e6e" d="M 301.5,648.5 C 314.255,647.097 317.921,652.264 312.5,664C 300.637,667.131 296.47,662.631 300,650.5C 300.717,649.956 301.217,649.289 301.5,648.5 Z"/></g>
<g><path style="opacity:1" fill="#f6f6f6" d="M 302.5,650.5 C 305.448,650.223 308.281,650.556 311,651.5C 311.793,655.423 311.626,659.256 310.5,663C 307.901,663.769 305.401,663.602 303,662.5C 302.501,658.514 302.334,654.514 302.5,650.5 Z"/></g>
<g><path style="opacity:1" fill="#6e6e6e" d="M 197.5,648.5 C 201.911,648.021 206.078,648.688 210,650.5C 210.667,654.5 210.667,658.5 210,662.5C 205.998,666.122 201.665,666.456 197,663.5C 194.932,658.395 195.099,653.395 197.5,648.5 Z"/></g>
<g><path style="opacity:1" fill="#f2f2f2" d="M 199.5,650.5 C 202.448,650.223 205.281,650.556 208,651.5C 208.956,655.572 208.456,659.405 206.5,663C 203.653,663.944 201.153,663.444 199,661.5C 198.245,657.745 198.411,654.078 199.5,650.5 Z"/></g>
<g><path style="opacity:1" fill="#717171" d="M 242.5,648.5 C 243.5,648.5 244.5,648.5 245.5,648.5C 245.334,653.179 245.501,657.845 246,662.5C 248.592,663.982 250.925,663.648 253,661.5C 253.499,657.179 253.666,652.846 253.5,648.5C 254.5,648.5 255.5,648.5 256.5,648.5C 256.5,653.833 256.5,659.167 256.5,664.5C 253.626,664.451 250.792,664.784 248,665.5C 246.289,665.561 244.956,664.894 244,663.5C 242.612,658.628 242.112,653.628 242.5,648.5 Z"/></g>
<g><path style="opacity:1" fill="#b9b9b9" d="M 491.5,648.5 C 490.887,654.271 491.554,659.604 493.5,664.5C 492.791,665.404 491.791,665.737 490.5,665.5C 490.178,659.642 490.511,653.975 491.5,648.5 Z"/></g>
<g><path style="opacity:1" fill="#6d6d6d" d="M 491.5,648.5 C 495.331,648.6 499.331,648.767 503.5,649C 504,649.5 504.5,650 505,650.5C 505.499,655.489 505.666,660.489 505.5,665.5C 504.5,665.5 503.5,665.5 502.5,665.5C 502.5,660.5 502.5,655.5 502.5,650.5C 499.315,650.02 496.481,650.686 494,652.5C 493.501,656.486 493.334,660.486 493.5,664.5C 491.554,659.604 490.887,654.271 491.5,648.5 Z"/></g>
<g><path style="opacity:1" fill="#7a7a7a" d="M 624.5,648.5 C 625.5,648.5 626.5,648.5 627.5,648.5C 627.5,654.167 627.5,659.833 627.5,665.5C 626.5,665.5 625.5,665.5 624.5,665.5C 624.5,659.833 624.5,654.167 624.5,648.5 Z"/></g>
<g><path style="opacity:1" fill="#646464" d="M 342.5,652.5 C 342.5,653.833 342.5,655.167 342.5,656.5C 338.5,656.5 334.5,656.5 330.5,656.5C 330.232,658.099 330.566,659.432 331.5,660.5C 331.874,662.95 333.374,663.95 336,663.5C 338.617,663.873 340.45,662.873 341.5,660.5C 342.731,661.651 342.731,662.817 341.5,664C 336.886,666.402 332.719,665.902 329,662.5C 325.146,651.033 328.979,646.533 340.5,649C 341.823,649.816 342.489,650.983 342.5,652.5 Z"/></g>
<g><path style="opacity:1" fill="#ededed" d="M 331.5,650.5 C 334.187,650.336 336.854,650.503 339.5,651C 340.38,652.356 340.714,653.856 340.5,655.5C 337.167,655.5 333.833,655.5 330.5,655.5C 330.629,653.784 330.962,652.117 331.5,650.5 Z"/></g>
<g><path style="opacity:1" fill="#a4a4a4" d="M 342.5,652.5 C 343.451,653.919 343.784,655.585 343.5,657.5C 339.5,657.5 335.5,657.5 331.5,657.5C 331.5,658.5 331.5,659.5 331.5,660.5C 330.566,659.432 330.232,658.099 330.5,656.5C 334.5,656.5 338.5,656.5 342.5,656.5C 342.5,655.167 342.5,653.833 342.5,652.5 Z"/></g>
<g><path style="opacity:1" fill="#6a6a6a" d="M 358.5,648.5 C 361.85,648.335 365.183,648.502 368.5,649C 370.559,650.185 370.726,651.352 369,652.5C 366.065,650.808 362.898,650.142 359.5,650.5C 359.286,652.144 359.62,653.644 360.5,655C 363.854,655.455 367.187,655.955 370.5,656.5C 371.2,664.515 367.534,667.348 359.5,665C 357.393,663.736 356.393,661.903 356.5,659.5C 357.5,659.5 358.5,659.5 359.5,659.5C 359.237,662.734 360.737,664.068 364,663.5C 368.26,663.623 369.426,661.79 367.5,658C 363.892,657.974 360.558,657.141 357.5,655.5C 356.073,652.884 356.406,650.551 358.5,648.5 Z"/></g>
<g><path style="opacity:1" fill="#6b6b6b" d="M 568.5,648.5 C 578.767,646.268 582.934,650.268 581,660.5C 579.471,663.934 576.804,665.6 573,665.5C 570.615,665.744 568.782,664.911 567.5,663C 565.889,657.916 566.222,653.083 568.5,648.5 Z"/></g>
<g><path style="opacity:1" fill="#f4f4f4" d="M 569.5,650.5 C 572.448,650.223 575.281,650.556 578,651.5C 578.667,654.5 578.667,657.5 578,660.5C 575.916,663.451 573.249,664.117 570,662.5C 568.266,658.543 568.099,654.543 569.5,650.5 Z"/></g>
<g><path style="opacity:1" fill="#676767" d="M 597.5,648.5 C 601.287,648.78 604.953,648.78 608.5,648.5C 609.664,655.476 609.831,662.476 609,669.5C 608.228,670.849 607.061,671.682 605.5,672C 602.833,672.667 600.167,672.667 597.5,672C 596.139,670.416 595.472,668.582 595.5,666.5C 596.5,666.5 597.5,666.5 598.5,666.5C 598.155,669.488 599.488,670.821 602.5,670.5C 606.481,669.888 607.981,667.554 607,663.5C 603.064,666.314 599.397,665.981 596,662.5C 594.966,657.543 595.466,652.876 597.5,648.5 Z"/></g>
<g><path style="opacity:1" fill="#efefef" d="M 598.5,650.5 C 606.505,649.342 609.339,652.675 607,660.5C 604.916,663.451 602.249,664.117 599,662.5C 597.33,658.51 597.164,654.51 598.5,650.5 Z"/></g>
<g><path style="opacity:1" fill="#6b6b6b" d="M 521.5,648.5 C 525.911,648.021 530.078,648.688 534,650.5C 534.667,654.167 534.667,657.833 534,661.5C 533.535,662.931 532.701,664.097 531.5,665C 523.673,667.27 519.673,664.436 519.5,656.5C 519.564,653.65 520.23,650.983 521.5,648.5 Z"/></g>
<g><path style="opacity:1" fill="#f3f3f3" d="M 523.5,650.5 C 526.167,650.5 528.833,650.5 531.5,650.5C 533.157,654.87 532.824,659.036 530.5,663C 527.653,663.944 525.153,663.444 523,661.5C 522.245,657.745 522.411,654.078 523.5,650.5 Z"/></g>
<g><path style="opacity:1" fill="#a5a5a5" d="M 683.5,651.5 C 684.486,655.97 684.819,660.637 684.5,665.5C 683.209,665.737 682.209,665.404 681.5,664.5C 683.43,660.627 684.097,656.294 683.5,651.5 Z"/></g>
<g><path style="opacity:1" fill="#6c6c6c" d="M 643.5,648.5 C 646.85,648.335 650.183,648.502 653.5,649C 655.421,650.241 655.754,651.741 654.5,653.5C 652.205,650.61 649.205,649.777 645.5,651C 644.167,655 644.167,659 645.5,663C 647.833,663.667 650.167,663.667 652.5,663C 653.071,661.795 653.738,660.628 654.5,659.5C 655.747,661.006 655.747,662.506 654.5,664C 646.391,667.62 642.058,665.12 641.5,656.5C 641.564,653.65 642.23,650.983 643.5,648.5 Z"/></g>
<g><path style="opacity:1" fill="#6d6d6d" d="M 273.5,648.5 C 276.85,648.335 280.183,648.502 283.5,649C 285.037,650.11 285.703,651.61 285.5,653.5C 284.5,653.5 283.5,653.5 282.5,653.5C 282.5,652.5 282.5,651.5 282.5,650.5C 273.428,650.456 271.095,654.623 275.5,663C 279.526,664.337 282.526,663.17 284.5,659.5C 285.644,662.248 284.644,664.081 281.5,665C 274.332,666.665 270.999,663.831 271.5,656.5C 271.289,653.514 271.956,650.847 273.5,648.5 Z"/></g>
<g><path style="opacity:1" fill="#6c6c6c" d="M 464.5,648.5 C 467.85,648.335 471.183,648.502 474.5,649C 476.421,650.241 476.754,651.741 475.5,653.5C 474.713,652.758 474.047,651.925 473.5,651C 470.854,650.503 468.187,650.336 465.5,650.5C 465.334,654.514 465.501,658.514 466,662.5C 470.118,664.4 473.285,663.4 475.5,659.5C 477.222,662.749 476.222,664.582 472.5,665C 465.384,666.721 462.05,663.888 462.5,656.5C 462.385,653.591 463.051,650.925 464.5,648.5 Z"/></g>
<g><path style="opacity:1" fill="#6f6f6f" d="M 683.5,651.5 C 684.097,656.294 683.43,660.627 681.5,664.5C 677.803,666.077 674.303,665.744 671,663.5C 668.722,660.121 669.222,657.288 672.5,655C 675.23,654.272 677.897,654.438 680.5,655.5C 681.452,653.955 681.785,652.288 681.5,650.5C 677.869,650.032 674.535,650.699 671.5,652.5C 670.41,651.609 670.41,650.609 671.5,649.5C 675.122,648.341 678.789,648.175 682.5,649C 683.252,649.671 683.586,650.504 683.5,651.5 Z"/></g>
<g><path style="opacity:1" fill="#f4f4f4" d="M 672.5,657.5 C 675.187,657.336 677.854,657.503 680.5,658C 681.86,659.938 681.527,661.604 679.5,663C 674.087,664.9 671.753,663.067 672.5,657.5 Z"/></g>
<g><path style="opacity:1" fill="#6b6b6b" d="M 700.5,648.5 C 703.85,648.335 707.183,648.502 710.5,649C 712.559,650.185 712.726,651.352 711,652.5C 708.065,650.808 704.898,650.142 701.5,650.5C 701.286,652.144 701.62,653.644 702.5,655C 709.961,653.47 713.128,656.304 712,663.5C 707.77,666.041 703.603,666.041 699.5,663.5C 698.754,662.264 698.421,660.93 698.5,659.5C 699.5,659.5 700.5,659.5 701.5,659.5C 701.237,662.734 702.737,664.068 706,663.5C 710.26,663.623 711.426,661.79 709.5,658C 706.242,657.788 703.076,657.288 700,656.5C 697.893,653.629 698.059,650.963 700.5,648.5 Z"/></g>
<g><path style="opacity:1" fill="#1d4d7d" d="M 866.5,655.5 C 861.8,661.188 855.8,664.855 848.5,666.5C 851.32,663.919 854.654,662.086 858.5,661C 859.337,659.989 859.67,658.822 859.5,657.5C 861.833,656.833 864.167,656.167 866.5,655.5 Z"/></g>
<g><path style="opacity:1" fill="#6d6d6d" d="M 277.5,667.5 C 280.012,668.216 280.012,669.216 277.5,670.5C 276.913,669.767 276.913,668.767 277.5,667.5 Z"/></g>
<g><path style="opacity:1" fill="#36689c" d="M 728.5,641.5 C 728.173,651.348 728.506,661.014 729.5,670.5C 763.507,670.833 797.507,670.5 831.5,669.5C 837.007,667.599 842.673,666.599 848.5,666.5C 843.291,668.05 837.958,669.55 832.5,671C 797.502,671.5 762.502,671.667 727.5,671.5C 727.173,661.319 727.506,651.319 728.5,641.5 Z"/></g>
</svg>
