<?xml version="1.0" encoding="UTF-8"?>
<!DOCTYPE svg PUBLIC "-//W3C//DTD SVG 1.1//EN" "http://www.w3.org/Graphics/SVG/1.1/DTD/svg11.dtd">
<svg xmlns="http://www.w3.org/2000/svg" version="1.1" width="500px" height="500px" style="shape-rendering:geometricPrecision; text-rendering:geometricPrecision; image-rendering:optimizeQuality; fill-rule:evenodd; clip-rule:evenodd" xmlns:xlink="http://www.w3.org/1999/xlink">
<g><path style="opacity:0.988" fill="#fefdfe" d="M 238.5,10.5 C 329.418,9.73791 399.585,47.0712 449,122.5C 491.843,197.722 494.51,274.389 457,352.5C 411.539,432.843 342.373,474.843 249.5,478.5C 156.627,474.843 87.4608,432.843 42,352.5C 3.66989,272.144 7.33656,193.811 53,117.5C 97.578,52.2834 159.411,16.6167 238.5,10.5 Z"/></g>
<g><path style="opacity:1" fill="#6b92d5" d="M 243.5,144.5 C 235.048,144.098 226.715,144.765 218.5,146.5C 220.277,145.4 222.277,144.566 224.5,144C 231.014,143.18 237.347,143.347 243.5,144.5 Z"/></g>
<g><path style="opacity:1" fill="#1a5bbf" d="M 243.5,144.5 C 262.821,147.493 273.154,158.826 274.5,178.5C 274.5,182.833 274.5,187.167 274.5,191.5C 263.833,191.5 253.167,191.5 242.5,191.5C 242.666,186.821 242.499,182.155 242,177.5C 237.333,172.167 232.667,172.167 228,177.5C 227.123,182.544 228.123,187.211 231,191.5C 241.946,202.446 252.946,213.446 264,224.5C 274.965,238.304 278.965,253.971 276,271.5C 275.034,284.427 269.867,295.261 260.5,304C 244.026,311.489 227.693,311.156 211.5,303C 203.283,296.066 198.616,287.233 197.5,276.5C 196.713,266.854 196.38,257.188 196.5,247.5C 207.167,247.5 217.833,247.5 228.5,247.5C 228.334,256.173 228.5,264.84 229,273.5C 229.278,274.416 229.778,275.082 230.5,275.5C 231.378,278.287 233.378,279.62 236.5,279.5C 240.612,279.526 243.112,277.526 244,273.5C 245.31,263.743 243.31,254.743 238,246.5C 228,236.5 218,226.5 208,216.5C 203.328,210.021 199.828,203.021 197.5,195.5C 197.5,194.167 197.5,192.833 197.5,191.5C 197.159,181.558 198.492,171.892 201.5,162.5C 204.567,154.434 210.234,149.1 218.5,146.5C 226.715,144.765 235.048,144.098 243.5,144.5 Z"/></g>
<g><path style="opacity:1" fill="#195bbf" d="M 425.5,171.5 C 427.064,180.759 427.731,190.092 427.5,199.5C 417.167,199.5 406.833,199.5 396.5,199.5C 396.811,191.772 396.311,184.105 395,176.5C 392.091,173.606 388.591,172.773 384.5,174C 383.619,174.708 382.953,175.542 382.5,176.5C 381.21,177.058 380.377,178.058 380,179.5C 379.169,210.336 379.336,241.003 380.5,271.5C 382.152,279.633 386.652,281.633 394,277.5C 394.667,275.5 395.333,273.5 396,271.5C 396.5,261.172 396.666,250.839 396.5,240.5C 394.167,240.5 391.833,240.5 389.5,240.5C 389.5,231.5 389.5,222.5 389.5,213.5C 402.167,213.5 414.833,213.5 427.5,213.5C 427.5,244.833 427.5,276.167 427.5,307.5C 423.116,307.826 418.783,307.492 414.5,306.5C 413.242,302.358 411.242,298.692 408.5,295.5C 398.018,308.711 384.684,312.545 368.5,307C 362.057,304.223 357.223,299.723 354,293.5C 351.07,286.779 349.236,279.779 348.5,272.5C 348.225,239.152 348.558,205.819 349.5,172.5C 352.566,156.933 361.9,147.433 377.5,144C 389.968,141.926 401.635,143.926 412.5,150C 419.523,155.547 423.856,162.714 425.5,171.5 Z"/></g>
<g><path style="opacity:1" fill="#6591d4" d="M 110.5,145.5 C 100.167,145.5 89.8333,145.5 79.5,145.5C 79.5,199.5 79.5,253.5 79.5,307.5C 78.501,253.336 78.1677,199.003 78.5,144.5C 89.3464,144.172 100.013,144.506 110.5,145.5 Z"/></g>
<g><path style="opacity:1" fill="#175abf" d="M 110.5,145.5 C 110.5,164.833 110.5,184.167 110.5,203.5C 116.026,203.821 121.36,203.488 126.5,202.5C 126.5,183.5 126.5,164.5 126.5,145.5C 137.167,145.5 147.833,145.5 158.5,145.5C 158.5,199.5 158.5,253.5 158.5,307.5C 147.833,307.5 137.167,307.5 126.5,307.5C 126.5,282.833 126.5,258.167 126.5,233.5C 121.167,233.5 115.833,233.5 110.5,233.5C 110.5,258.167 110.5,282.833 110.5,307.5C 100.167,307.5 89.8333,307.5 79.5,307.5C 79.5,253.5 79.5,199.5 79.5,145.5C 89.8333,145.5 100.167,145.5 110.5,145.5 Z"/></g>
<g><path style="opacity:1" fill="#88aade" d="M 110.5,145.5 C 111.497,164.326 111.83,183.326 111.5,202.5C 116.5,202.5 121.5,202.5 126.5,202.5C 121.36,203.488 116.026,203.821 110.5,203.5C 110.5,184.167 110.5,164.833 110.5,145.5 Z"/></g>
<g><path style="opacity:1" fill="#1a5bbf" d="M 163.5,145.5 C 173.833,145.5 184.167,145.5 194.5,145.5C 194.5,199.5 194.5,253.5 194.5,307.5C 184.167,307.5 173.833,307.5 163.5,307.5C 163.5,253.5 163.5,199.5 163.5,145.5 Z"/></g>
<g><path style="opacity:1" fill="#3c73c8" d="M 344.5,176.5 C 344.167,176.5 343.833,176.5 343.5,176.5C 343.5,166.5 343.5,156.5 343.5,146.5C 322.5,146.5 301.5,146.5 280.5,146.5C 280.5,200.167 280.5,253.833 280.5,307.5C 279.501,253.669 279.168,199.669 279.5,145.5C 301.167,145.5 322.833,145.5 344.5,145.5C 344.5,155.833 344.5,166.167 344.5,176.5 Z"/></g>
<g><path style="opacity:1" fill="#165abf" d="M 343.5,176.5 C 333.167,176.5 322.833,176.5 312.5,176.5C 312.5,187.167 312.5,197.833 312.5,208.5C 322.5,208.5 332.5,208.5 342.5,208.5C 342.5,218.5 342.5,228.5 342.5,238.5C 332.5,238.5 322.5,238.5 312.5,238.5C 311.505,250.989 311.171,263.656 311.5,276.5C 322.833,276.5 334.167,276.5 345.5,276.5C 345.5,286.833 345.5,297.167 345.5,307.5C 323.833,307.5 302.167,307.5 280.5,307.5C 280.5,253.833 280.5,200.167 280.5,146.5C 301.5,146.5 322.5,146.5 343.5,146.5C 343.5,156.5 343.5,166.5 343.5,176.5 Z"/></g>
<g><path style="opacity:1" fill="#c6d6ef" d="M 343.5,176.5 C 343.833,176.5 344.167,176.5 344.5,176.5C 334.347,177.494 324.014,177.828 313.5,177.5C 313.5,187.5 313.5,197.5 313.5,207.5C 323.348,207.173 333.014,207.506 342.5,208.5C 332.5,208.5 322.5,208.5 312.5,208.5C 312.5,197.833 312.5,187.167 312.5,176.5C 322.833,176.5 333.167,176.5 343.5,176.5 Z"/></g>
<g><path style="opacity:1" fill="#6892d5" d="M 201.5,162.5 C 198.492,171.892 197.159,181.558 197.5,191.5C 196.196,185.933 196.196,180.266 197.5,174.5C 197.861,170.085 199.194,166.085 201.5,162.5 Z"/></g>
<g><path style="opacity:1" fill="#b0c7e9" d="M 382.5,176.5 C 381.895,179.127 381.395,181.793 381,184.5C 380.5,213.498 380.333,242.498 380.5,271.5C 379.336,241.003 379.169,210.336 380,179.5C 380.377,178.058 381.21,177.058 382.5,176.5 Z"/></g>
<g><path style="opacity:1" fill="#5e8cd2" d="M 349.5,172.5 C 348.558,205.819 348.225,239.152 348.5,272.5C 347.336,240.669 347.169,208.669 348,176.5C 348.21,174.942 348.71,173.609 349.5,172.5 Z"/></g>
<g><path style="opacity:1" fill="#b6c9eb" d="M 274.5,178.5 C 275.486,182.97 275.819,187.637 275.5,192.5C 264.321,192.828 253.321,192.495 242.5,191.5C 253.167,191.5 263.833,191.5 274.5,191.5C 274.5,187.167 274.5,182.833 274.5,178.5 Z"/></g>
<g><path style="opacity:1" fill="#fbfcfe" d="M 197.5,195.5 C 199.828,203.021 203.328,210.021 208,216.5C 218,226.5 228,236.5 238,246.5C 243.31,254.743 245.31,263.743 244,273.5C 243.112,277.526 240.612,279.526 236.5,279.5C 233.378,279.62 231.378,278.287 230.5,275.5C 229.976,266.01 229.309,256.676 228.5,247.5C 218.013,246.506 207.346,246.172 196.5,246.5C 196.17,229.325 196.503,212.325 197.5,195.5 Z"/></g>
<g><path style="opacity:1" fill="#93b2e1" d="M 425.5,171.5 C 427.109,174.149 427.943,177.149 428,180.5C 428.5,187.158 428.666,193.825 428.5,200.5C 417.654,200.828 406.987,200.494 396.5,199.5C 406.833,199.5 417.167,199.5 427.5,199.5C 427.731,190.092 427.064,180.759 425.5,171.5 Z"/></g>
<g><path style="opacity:1" fill="#3872c8" d="M 427.5,213.5 C 414.833,213.5 402.167,213.5 389.5,213.5C 389.5,222.5 389.5,231.5 389.5,240.5C 388.506,231.348 388.173,222.015 388.5,212.5C 401.677,212.171 414.677,212.505 427.5,213.5 Z"/></g>
<g><path style="opacity:1" fill="#b7cbeb" d="M 126.5,307.5 C 125.502,283.339 125.169,259.006 125.5,234.5C 120.833,234.5 116.167,234.5 111.5,234.5C 111.831,259.006 111.498,283.339 110.5,307.5C 110.5,282.833 110.5,258.167 110.5,233.5C 115.833,233.5 121.167,233.5 126.5,233.5C 126.5,258.167 126.5,282.833 126.5,307.5 Z"/></g>
<g><path style="opacity:1" fill="#d9e4f4" d="M 312.5,238.5 C 322.5,238.5 332.5,238.5 342.5,238.5C 333.014,239.494 323.348,239.827 313.5,239.5C 313.5,251.5 313.5,263.5 313.5,275.5C 312.505,263.345 312.171,251.011 312.5,238.5 Z"/></g>
<g><path style="opacity:1" fill="#b9cdeb" d="M 228.5,247.5 C 229.309,256.676 229.976,266.01 230.5,275.5C 229.778,275.082 229.278,274.416 229,273.5C 228.5,264.84 228.334,256.173 228.5,247.5 Z"/></g>
<g><path style="opacity:1" fill="#c0d1ee" d="M 163.5,145.5 C 174.321,144.505 185.321,144.172 196.5,144.5C 196.173,154.681 196.506,164.681 197.5,174.5C 196.196,180.266 196.196,185.933 197.5,191.5C 197.5,192.833 197.5,194.167 197.5,195.5C 196.503,212.325 196.17,229.325 196.5,246.5C 207.346,246.172 218.013,246.506 228.5,247.5C 217.833,247.5 207.167,247.5 196.5,247.5C 196.38,257.188 196.713,266.854 197.5,276.5C 197.158,287.04 196.158,297.374 194.5,307.5C 194.5,253.5 194.5,199.5 194.5,145.5C 184.167,145.5 173.833,145.5 163.5,145.5 Z"/></g>
<g><path style="opacity:1" fill="#799ed9" d="M 312.5,238.5 C 312.171,251.011 312.505,263.345 313.5,275.5C 324.5,275.5 335.5,275.5 346.5,275.5C 346.828,286.346 346.494,297.013 345.5,307.5C 345.5,297.167 345.5,286.833 345.5,276.5C 334.167,276.5 322.833,276.5 311.5,276.5C 311.171,263.656 311.505,250.989 312.5,238.5 Z"/></g>
<g><path style="opacity:1" fill="#ff332d" d="M 268.5,326.5 C 271.247,326.187 273.914,326.52 276.5,327.5C 273.861,330.399 270.694,332.399 267,333.5C 266.167,333.167 265.333,332.833 264.5,332.5C 266.278,330.736 267.611,328.736 268.5,326.5 Z"/></g>
<g><path style="opacity:1" fill="#ff4745" d="M 251.5,334.5 C 251.5,332.833 251.5,331.167 251.5,329.5C 243.5,329.5 235.5,329.5 227.5,329.5C 227.5,331.167 227.5,332.833 227.5,334.5C 226.539,332.735 226.205,330.735 226.5,328.5C 235.167,328.5 243.833,328.5 252.5,328.5C 252.795,330.735 252.461,332.735 251.5,334.5 Z"/></g>
<g><path style="opacity:1" fill="#ff302a" d="M 342.5,326.5 C 348.158,325.679 349.825,327.846 347.5,333C 341.741,334.139 340.074,331.972 342.5,326.5 Z"/></g>
<g><path style="opacity:1" fill="#ff2924" d="M 88.5,361.5 C 88.2053,359.265 88.5386,357.265 89.5,355.5C 93.3343,357.166 97.3343,357.666 101.5,357C 102.982,354.408 102.648,352.075 100.5,350C 96.5808,348.46 93.0808,346.293 90,343.5C 86.888,337.127 88.388,332.293 94.5,329C 98.1667,328.333 101.833,328.333 105.5,329C 109.603,329.708 110.603,331.874 108.5,335.5C 104.524,334.669 100.524,334.503 96.5,335C 95.0652,337.267 95.3985,339.267 97.5,341C 101.931,342.629 105.764,345.129 109,348.5C 111.22,355.437 109.053,360.27 102.5,363C 97.6099,363.966 92.9432,363.466 88.5,361.5 Z"/></g>
<g><path style="opacity:1" fill="#ff231f" d="M 251.5,334.5 C 248.5,334.5 245.5,334.5 242.5,334.5C 242.5,344.167 242.5,353.833 242.5,363.5C 240.167,363.5 237.833,363.5 235.5,363.5C 235.5,353.833 235.5,344.167 235.5,334.5C 232.833,334.5 230.167,334.5 227.5,334.5C 227.5,332.833 227.5,331.167 227.5,329.5C 235.5,329.5 243.5,329.5 251.5,329.5C 251.5,331.167 251.5,332.833 251.5,334.5 Z"/></g>
<g><path style="opacity:1" fill="#ff2622" d="M 147.5,331.5 C 148.833,331.5 150.167,331.5 151.5,331.5C 151.216,333.415 151.549,335.081 152.5,336.5C 154.833,336.5 157.167,336.5 159.5,336.5C 159.5,338.167 159.5,339.833 159.5,341.5C 156.833,341.5 154.167,341.5 151.5,341.5C 151.179,346.695 151.513,351.695 152.5,356.5C 154.607,357.468 156.941,357.802 159.5,357.5C 159.739,359.467 159.406,361.301 158.5,363C 153.848,364.193 149.681,363.36 146,360.5C 145.667,354.5 145.333,348.5 145,342.5C 143.989,341.663 142.822,341.33 141.5,341.5C 143.815,338.482 145.815,335.148 147.5,331.5 Z"/></g>
<g><path style="opacity:1" fill="#ff9291" d="M 147.5,331.5 C 148.919,330.549 150.585,330.216 152.5,330.5C 152.5,332.5 152.5,334.5 152.5,336.5C 151.549,335.081 151.216,333.415 151.5,331.5C 150.167,331.5 148.833,331.5 147.5,331.5 Z"/></g>
<g><path style="opacity:1" fill="#ff2a25" d="M 134.5,357.5 C 136.176,358.183 136.843,359.517 136.5,361.5C 131.346,363.917 126.013,364.084 120.5,362C 114.882,357.071 113.049,350.905 115,343.5C 118.655,336.93 124.155,334.763 131.5,337C 137.882,339.819 140.215,344.652 138.5,351.5C 132.833,351.5 127.167,351.5 121.5,351.5C 121.78,354.287 123.113,356.453 125.5,358C 128.531,358.495 131.531,358.329 134.5,357.5 Z"/></g>
<g><path style="opacity:1" fill="#ff2722" d="M 165.5,356.5 C 164.728,352.548 164.395,348.548 164.5,344.5C 165.183,340.98 167.183,338.48 170.5,337C 187.509,335.877 192.676,343.377 186,359.5C 181.778,363.052 176.945,364.219 171.5,363C 168.591,361.594 166.591,359.428 165.5,356.5 Z"/></g>
<g><path style="opacity:1" fill="#ff2c26" d="M 195.5,336.5 C 198.833,336.027 201,337.36 202,340.5C 204.239,337.038 207.406,335.705 211.5,336.5C 211.5,338.5 211.5,340.5 211.5,342.5C 208.138,342.07 205.305,343.07 203,345.5C 202.501,351.491 202.334,357.491 202.5,363.5C 200.167,363.5 197.833,363.5 195.5,363.5C 195.5,354.5 195.5,345.5 195.5,336.5 Z"/></g>
<g><path style="opacity:1" fill="#ff2a25" d="M 275.5,357.5 C 277.176,358.183 277.843,359.517 277.5,361.5C 272.346,363.917 267.013,364.084 261.5,362C 255.882,357.071 254.049,350.905 256,343.5C 259.655,336.93 265.155,334.763 272.5,337C 278.882,339.819 281.215,344.652 279.5,351.5C 273.833,351.5 268.167,351.5 262.5,351.5C 262.78,354.287 264.113,356.453 266.5,358C 269.531,358.495 272.531,358.329 275.5,357.5 Z"/></g>
<g><path style="opacity:1" fill="#ff312a" d="M 302.5,356.5 C 303.742,358.389 303.742,360.389 302.5,362.5C 290.46,365.825 284.127,361.325 283.5,349C 283.524,343.615 285.857,339.615 290.5,337C 295.37,336.033 300.037,336.533 304.5,338.5C 303.96,339.748 303.293,340.915 302.5,342C 292.012,340.835 288.512,345.335 292,355.5C 295.231,357.84 298.731,358.173 302.5,356.5 Z"/></g>
<g><path style="opacity:1" fill="#ff2f28" d="M 310.5,336.5 C 312.167,336.5 313.833,336.5 315.5,336.5C 315.281,337.675 315.614,338.675 316.5,339.5C 323.005,334.945 328.838,335.611 334,341.5C 334.5,348.826 334.666,356.159 334.5,363.5C 332.167,363.5 329.833,363.5 327.5,363.5C 327.83,356.8 327.497,350.134 326.5,343.5C 323.329,340.665 320.496,340.998 318,344.5C 317.5,350.825 317.334,357.158 317.5,363.5C 315.167,363.5 312.833,363.5 310.5,363.5C 310.5,354.5 310.5,345.5 310.5,336.5 Z"/></g>
<g><path style="opacity:1" fill="#ff3d3c" d="M 347.5,363.5 C 347.5,354.833 347.5,346.167 347.5,337.5C 345.833,337.5 344.167,337.5 342.5,337.5C 342.5,346.167 342.5,354.833 342.5,363.5C 341.507,354.682 341.173,345.682 341.5,336.5C 343.833,336.5 346.167,336.5 348.5,336.5C 348.827,345.682 348.493,354.682 347.5,363.5 Z"/></g>
<g><path style="opacity:1" fill="#fe1817" d="M 347.5,363.5 C 345.833,363.5 344.167,363.5 342.5,363.5C 342.5,354.833 342.5,346.167 342.5,337.5C 344.167,337.5 345.833,337.5 347.5,337.5C 347.5,346.167 347.5,354.833 347.5,363.5 Z"/></g>
<g><path style="opacity:1" fill="#ff312a" d="M 373.5,356.5 C 374.742,358.389 374.742,360.389 373.5,362.5C 361.46,365.825 355.127,361.325 354.5,349C 354.524,343.615 356.857,339.615 361.5,337C 366.37,336.033 371.037,336.533 375.5,338.5C 374.96,339.748 374.293,340.915 373.5,342C 363.012,340.835 359.512,345.335 363,355.5C 366.231,357.84 369.731,358.173 373.5,356.5 Z"/></g>
<g><path style="opacity:1" fill="#ff2a25" d="M 386.5,336.5 C 404.677,336.674 409.344,344.841 400.5,361C 392.943,365.246 386.443,364.08 381,357.5C 377.526,348.86 379.36,341.86 386.5,336.5 Z"/></g>
<g><path style="opacity:1" fill="#fff3f2" d="M 131.5,346.5 C 127.988,347.055 124.988,346.388 122.5,344.5C 122.414,343.504 122.748,342.671 123.5,342C 128.159,340.349 130.826,341.849 131.5,346.5 Z"/></g>
<g><path style="opacity:1" fill="#fff3f2" d="M 272.5,346.5 C 268.988,347.055 265.988,346.388 263.5,344.5C 263.414,343.504 263.748,342.671 264.5,342C 269.159,340.349 271.826,341.849 272.5,346.5 Z"/></g>
<g><path style="opacity:1" fill="#ff8180" d="M 159.5,341.5 C 157.393,342.468 155.059,342.802 152.5,342.5C 152.5,347.167 152.5,351.833 152.5,356.5C 151.513,351.695 151.179,346.695 151.5,341.5C 154.167,341.5 156.833,341.5 159.5,341.5 Z"/></g>
<g><path style="opacity:1" fill="#ffefef" d="M 174.5,341.5 C 177.325,341.081 179.491,342.081 181,344.5C 181.886,348.866 181.386,353.033 179.5,357C 175.525,358.379 172.691,357.213 171,353.5C 169.593,348.556 170.759,344.556 174.5,341.5 Z"/></g>
<g><path style="opacity:1" fill="#ffefef" d="M 389.5,341.5 C 397.121,341.946 399.621,345.946 397,353.5C 395.727,357.102 393.227,358.268 389.5,357C 385.524,351.766 385.524,346.599 389.5,341.5 Z"/></g>
<g><path style="opacity:1" fill="#ff6e6d" d="M 122.5,344.5 C 124.988,346.388 127.988,347.055 131.5,346.5C 128.375,347.479 125.042,347.813 121.5,347.5C 121.263,346.209 121.596,345.209 122.5,344.5 Z"/></g>
<g><path style="opacity:1" fill="#ff6e6d" d="M 263.5,344.5 C 265.988,346.388 268.988,347.055 272.5,346.5C 269.375,347.479 266.042,347.813 262.5,347.5C 262.263,346.209 262.596,345.209 263.5,344.5 Z"/></g>
<g><path style="opacity:1" fill="#ff6c6a" d="M 164.5,344.5 C 164.395,348.548 164.728,352.548 165.5,356.5C 163.983,354.538 163.316,352.205 163.5,349.5C 163.507,347.631 163.84,345.964 164.5,344.5 Z"/></g>
<g><path style="opacity:1" fill="#ff9393" d="M 89.5,355.5 C 88.5386,357.265 88.2053,359.265 88.5,361.5C 87.2031,359.307 87.2031,356.973 88.5,354.5C 89.1067,354.624 89.44,354.957 89.5,355.5 Z"/></g>
<g><path style="opacity:1" fill="#ffb1b0" d="M 302.5,356.5 C 302.56,355.957 302.893,355.624 303.5,355.5C 303.833,356.667 304.167,357.833 304.5,359C 304.392,360.681 303.725,361.848 302.5,362.5C 303.742,360.389 303.742,358.389 302.5,356.5 Z"/></g>
<g><path style="opacity:1" fill="#ffb1b0" d="M 373.5,356.5 C 373.56,355.957 373.893,355.624 374.5,355.5C 374.833,356.667 375.167,357.833 375.5,359C 375.392,360.681 374.725,361.848 373.5,362.5C 374.742,360.389 374.742,358.389 373.5,356.5 Z"/></g>
<g><path style="opacity:1" fill="#ff8987" d="M 134.5,357.5 C 135.209,356.596 136.209,356.263 137.5,356.5C 137.784,358.415 137.451,360.081 136.5,361.5C 136.843,359.517 136.176,358.183 134.5,357.5 Z"/></g>
<g><path style="opacity:1" fill="#ff8987" d="M 275.5,357.5 C 276.209,356.596 277.209,356.263 278.5,356.5C 278.784,358.415 278.451,360.081 277.5,361.5C 277.843,359.517 277.176,358.183 275.5,357.5 Z"/></g>
</svg>
